<svg width="352" height="336" viewBox="0 0 352 336" fill="none" xmlns="http://www.w3.org/2000/svg">
<path d="M128.215 7.93204C128.705 12.9814 132.145 17.96 135.897 19.0574C139.649 20.156 142.293 16.9533 141.803 11.9053C141.312 6.85735 137.872 1.87869 134.12 0.780024C133.623 0.634691 133.144 0.565384 132.691 0.565384C129.721 0.565384 127.789 3.55338 128.215 7.93204Z" fill="url(#paint0_linear_1_10)"/>
<path d="M124.896 3.42003C124.649 3.5267 124.419 3.66002 124.2 3.81602C124.127 3.86802 124.063 3.93334 123.993 3.99201C123.853 4.10534 123.712 4.22001 123.583 4.35468C123.507 4.43601 123.443 4.52803 123.372 4.61603C123.264 4.74803 123.153 4.88002 123.057 5.02802C122.989 5.13202 122.931 5.24536 122.869 5.35602C122.808 5.46536 122.737 5.56403 122.683 5.6787C122.655 5.73736 122.632 5.80136 122.607 5.8627C122.579 5.92536 122.552 5.99068 122.525 6.05601C122.496 6.12935 122.461 6.19867 122.435 6.27334C122.377 6.43467 122.324 6.5987 122.276 6.7707C122.265 6.80536 122.257 6.84404 122.248 6.88137C122.241 6.90937 122.235 6.93868 122.227 6.96934C122.205 7.05334 122.183 7.13601 122.164 7.22134C122.133 7.36134 122.105 7.50267 122.081 7.64667C122.064 7.75734 122.049 7.86935 122.033 7.98135C122.033 7.98935 122.031 7.99871 122.029 8.00804C122.029 8.02004 122.028 8.02937 122.027 8.04137C122.011 8.1707 121.997 8.30134 121.985 8.43468C121.976 8.56134 121.969 8.68669 121.964 8.81602C121.959 8.93602 121.955 9.05737 121.953 9.18004V9.18801V9.19603C121.952 9.32003 121.953 9.44535 121.957 9.57335C121.959 9.69868 121.965 9.82535 121.972 9.95335C121.98 10.08 121.988 10.208 122 10.3373C122.004 10.3787 122.007 10.424 122.012 10.4667C122.019 10.5534 122.029 10.64 122.04 10.7254C122.055 10.856 122.072 10.9854 122.091 11.1147C122.103 11.2014 122.119 11.288 122.133 11.3734C122.137 11.3947 122.139 11.4147 122.141 11.4347C122.148 11.4587 122.149 11.484 122.155 11.508C122.177 11.6387 122.203 11.7707 122.229 11.9014C122.257 12.0347 122.287 12.168 122.317 12.3027C122.32 12.3133 122.324 12.3254 122.327 12.336C122.329 12.3494 122.332 12.36 122.336 12.3734C122.363 12.4827 122.389 12.592 122.417 12.7027C122.455 12.8387 122.492 12.9747 122.533 13.1107C122.545 13.1507 122.557 13.192 122.569 13.232C122.58 13.2627 122.588 13.2934 122.599 13.324C122.619 13.388 122.639 13.4534 122.659 13.5174C122.704 13.6587 122.752 13.7987 122.801 13.9374C122.825 14.0014 122.848 14.0627 122.873 14.1267C122.885 14.16 122.899 14.1933 122.912 14.228C122.931 14.276 122.947 14.324 122.965 14.372C123.025 14.524 123.087 14.6747 123.151 14.8253C123.175 14.8773 123.199 14.9307 123.223 14.984C123.249 15.0414 123.273 15.096 123.299 15.1533C123.331 15.224 123.361 15.2974 123.396 15.368C123.449 15.48 123.507 15.588 123.564 15.6987C123.615 15.8 123.664 15.9027 123.717 16.0027C123.735 16.0387 123.752 16.0747 123.772 16.1094C123.791 16.1427 123.812 16.172 123.831 16.204C124.108 16.7067 124.407 17.1894 124.729 17.6454C124.741 17.664 124.753 17.6867 124.767 17.7067C124.819 17.7787 124.875 17.844 124.928 17.9147C125.049 18.0774 125.171 18.2374 125.296 18.3907C125.331 18.4334 125.363 18.4787 125.396 18.5213C125.465 18.604 125.539 18.68 125.609 18.7614C125.677 18.8387 125.745 18.9174 125.813 18.9934C125.843 19.0227 125.869 19.056 125.899 19.088C126.044 19.2427 126.193 19.3934 126.344 19.5374C126.345 19.5387 126.345 19.5387 126.347 19.5387C126.349 19.544 126.353 19.5453 126.357 19.5493C126.487 19.6733 126.617 19.792 126.749 19.9067C126.805 19.9547 126.863 20 126.917 20.0454C126.955 20.076 126.991 20.1067 127.027 20.136C127.061 20.1627 127.095 20.1934 127.129 20.2187C127.247 20.312 127.364 20.4 127.484 20.4854C127.521 20.512 127.559 20.536 127.597 20.5613C127.621 20.5787 127.648 20.5987 127.675 20.6147C127.72 20.6454 127.765 20.6774 127.811 20.7067C127.915 20.776 128.021 20.84 128.128 20.9027C128.175 20.932 128.224 20.956 128.271 20.984L128.337 21.0213C128.369 21.0373 128.401 21.0573 128.433 21.0733C128.533 21.1267 128.632 21.176 128.732 21.224C128.813 21.2614 128.896 21.2973 128.977 21.332C128.985 21.336 128.995 21.3414 129.004 21.344C129.011 21.3467 129.019 21.3507 129.025 21.3534C129.121 21.3934 129.219 21.4307 129.315 21.4667C129.411 21.5014 129.507 21.5347 129.604 21.564C129.635 21.5734 129.664 21.5827 129.695 21.5907C129.761 21.6107 129.828 21.6294 129.895 21.6454C129.991 21.6707 130.085 21.6933 130.18 21.7107C130.277 21.7293 130.373 21.7467 130.468 21.76C130.481 21.7627 130.495 21.7627 130.507 21.7654C130.516 21.7654 130.527 21.7654 130.537 21.7667C130.609 21.7774 130.683 21.7867 130.755 21.792C130.856 21.8 130.953 21.804 131.052 21.8054C131.127 21.808 131.203 21.804 131.279 21.8014C131.291 21.8014 131.301 21.8014 131.312 21.8014C131.324 21.8014 131.336 21.8014 131.348 21.8C131.455 21.796 131.557 21.7867 131.661 21.7733C131.775 21.7587 131.883 21.7414 131.991 21.7174C132.001 21.7147 132.011 21.712 132.02 21.7094C132.036 21.7054 132.051 21.7014 132.063 21.6974C132.157 21.676 132.249 21.6533 132.339 21.6253C132.468 21.5853 132.592 21.5374 132.716 21.4854L138.787 19.0054C138.619 19.0707 138.444 19.1227 138.265 19.164C138.252 19.168 138.239 19.172 138.223 19.1747C137.995 19.2254 137.76 19.2573 137.516 19.268C137.504 19.2693 137.492 19.268 137.48 19.2694C137.241 19.2774 136.993 19.2653 136.74 19.2333C136.729 19.232 136.72 19.232 136.709 19.2307C136.445 19.1947 136.175 19.1387 135.897 19.0574C135.665 18.9894 135.435 18.9067 135.207 18.8107C135.197 18.8067 135.189 18.8014 135.18 18.7987C134.965 18.7054 134.751 18.6013 134.54 18.4867C134.519 18.4747 134.496 18.4614 134.473 18.4494C134.272 18.336 134.075 18.2134 133.877 18.0814C133.851 18.0627 133.827 18.0454 133.799 18.028C133.607 17.8947 133.417 17.752 133.229 17.6013C133.193 17.572 133.159 17.5414 133.123 17.5134C132.932 17.356 132.744 17.1907 132.56 17.0147C132.556 17.0133 132.552 17.0094 132.549 17.0054C132.367 16.832 132.192 16.648 132.016 16.46C131.947 16.3827 131.879 16.3027 131.809 16.224C131.705 16.1054 131.601 15.984 131.5 15.8587C131.373 15.704 131.251 15.5427 131.129 15.38C131.064 15.2907 130.996 15.2027 130.933 15.112C130.609 14.656 130.309 14.172 130.033 13.668C129.996 13.6027 129.957 13.5374 129.923 13.4707C129.867 13.368 129.817 13.264 129.764 13.1614C129.673 12.9814 129.587 12.8027 129.503 12.6214C129.476 12.564 129.451 12.5067 129.424 12.4494C129.315 12.2014 129.211 11.9494 129.115 11.6947C129.101 11.6614 129.088 11.6253 129.075 11.5907C128.977 11.3253 128.884 11.0574 128.8 10.7867C128.792 10.7587 128.783 10.7294 128.775 10.7C128.688 10.416 128.608 10.1307 128.539 9.84268C128.536 9.82801 128.533 9.8147 128.529 9.80003C128.459 9.5027 128.397 9.20403 128.347 8.90269C128.343 8.88136 128.339 8.86002 128.335 8.83869C128.285 8.53736 128.244 8.2347 128.215 7.93203C128.172 7.49203 128.152 7.06401 128.156 6.65335V6.64667C128.16 6.23867 128.185 5.84934 128.233 5.47468C128.235 5.46534 128.235 5.45604 128.236 5.44538C128.281 5.09205 128.348 4.75735 128.429 4.43602C128.436 4.40535 128.444 4.37603 128.452 4.34536C128.529 4.05603 128.624 3.78268 128.728 3.52135C128.755 3.45601 128.781 3.39203 128.809 3.32803C128.888 3.14936 128.979 2.98536 129.072 2.8227C129.133 2.7107 129.192 2.59735 129.26 2.49335C129.357 2.34669 129.465 2.21471 129.575 2.08271C129.644 1.99471 129.711 1.90136 129.788 1.82136C129.915 1.68669 130.056 1.57068 130.195 1.45868C130.265 1.40135 130.329 1.33337 130.403 1.2827C130.621 1.1267 130.852 0.993361 131.097 0.885361L124.896 3.42003ZM138.787 19.0054C138.831 18.988 138.875 18.9707 138.917 18.952L138.787 19.0054Z" fill="url(#paint1_linear_1_10)"/>
<path d="M130.053 34.24C130.544 39.288 133.983 44.2667 137.736 45.3653C141.489 46.4613 144.133 43.2613 143.643 38.2133C143.151 33.1653 139.712 28.1854 135.959 27.088C135.46 26.9427 134.983 26.872 134.528 26.872C131.56 26.872 129.628 29.8613 130.053 34.24Z" fill="url(#paint2_linear_1_10)"/>
<path d="M126.735 29.728C126.489 29.8333 126.257 29.968 126.039 30.124C125.965 30.176 125.903 30.2413 125.833 30.2973C125.691 30.4133 125.551 30.5267 125.424 30.6627C125.348 30.7427 125.281 30.836 125.211 30.9227C125.103 31.0547 124.993 31.1867 124.896 31.336C124.828 31.4387 124.769 31.5533 124.707 31.664C124.647 31.772 124.576 31.8693 124.523 31.9867C124.495 32.044 124.471 32.1094 124.445 32.1694C124.419 32.2334 124.391 32.2973 124.364 32.3627C124.335 32.436 124.3 32.5053 124.275 32.5813C124.216 32.7427 124.163 32.908 124.115 33.0774C124.105 33.1134 124.097 33.152 124.087 33.1893C124.08 33.216 124.072 33.2467 124.067 33.2747C124.045 33.36 124.023 33.4427 124.003 33.5293C123.973 33.668 123.945 33.8107 123.923 33.9547C123.903 34.064 123.888 34.176 123.873 34.288L123.869 34.316C123.868 34.3267 123.867 34.3387 123.865 34.3493C123.849 34.4787 123.836 34.6093 123.825 34.7427C123.816 34.868 123.807 34.9947 123.803 35.1227C123.796 35.2427 123.793 35.364 123.793 35.488V35.4947V35.5027C123.792 35.6267 123.793 35.7534 123.795 35.8814C123.8 36.0067 123.805 36.132 123.811 36.26C123.819 36.388 123.828 36.5147 123.839 36.6454C123.843 36.688 123.847 36.7307 123.852 36.7733C123.859 36.86 123.868 36.9467 123.879 37.0333C123.895 37.1627 123.912 37.2933 123.929 37.4227C123.943 37.5093 123.957 37.596 123.973 37.6827C123.975 37.7027 123.977 37.7227 123.981 37.7427L123.993 37.8147C124.017 37.9467 124.041 38.0787 124.069 38.2094C124.096 38.3427 124.127 38.4773 124.156 38.6093C124.16 38.6213 124.163 38.6333 124.165 38.644C124.168 38.656 124.172 38.668 124.175 38.68C124.201 38.7907 124.228 38.9 124.256 39.0093C124.293 39.1453 124.331 39.2827 124.371 39.4173C124.383 39.4587 124.397 39.4987 124.408 39.5387C124.419 39.5707 124.429 39.6 124.437 39.632C124.459 39.6947 124.477 39.7613 124.497 39.8253C124.544 39.9667 124.591 40.1067 124.643 40.2453C124.664 40.308 124.689 40.3707 124.712 40.4334C124.725 40.468 124.737 40.5013 124.751 40.5347C124.768 40.5827 124.785 40.6307 124.804 40.6787C124.863 40.832 124.925 40.9827 124.989 41.1333C125.013 41.1867 125.04 41.24 125.063 41.292C125.088 41.3493 125.112 41.404 125.137 41.4587C125.171 41.5307 125.201 41.604 125.235 41.676C125.289 41.788 125.348 41.896 125.401 42.0067C125.453 42.1067 125.504 42.2093 125.557 42.3093C125.576 42.3453 125.593 42.3813 125.611 42.4173C125.629 42.4507 125.653 42.4787 125.671 42.512C125.947 43.0147 126.245 43.4973 126.568 43.9533C126.581 43.972 126.592 43.9947 126.607 44.0134C126.659 44.0854 126.715 44.152 126.769 44.2227C126.888 44.3853 127.011 44.544 127.136 44.6987C127.169 44.74 127.201 44.7867 127.236 44.8294C127.305 44.9107 127.377 44.9867 127.448 45.0693C127.515 45.1453 127.584 45.224 127.652 45.2987C127.681 45.3307 127.708 45.364 127.737 45.3947C127.883 45.5493 128.032 45.7013 128.184 45.8453C128.184 45.8467 128.185 45.8467 128.185 45.848L128.197 45.8573C128.325 45.9813 128.457 46.1014 128.591 46.2147C128.644 46.2627 128.701 46.3067 128.757 46.3534C128.795 46.384 128.831 46.4134 128.868 46.444C128.901 46.4707 128.933 46.5 128.967 46.5267C129.085 46.6187 129.205 46.708 129.325 46.7933C129.361 46.82 129.397 46.844 129.435 46.8694C129.46 46.8867 129.487 46.904 129.515 46.9227C129.559 46.9533 129.603 46.9854 129.649 47.0134C129.756 47.0827 129.861 47.148 129.968 47.212C130.015 47.24 130.063 47.264 130.109 47.2894C130.131 47.3027 130.155 47.316 130.177 47.3267C130.208 47.3453 130.24 47.364 130.272 47.3814C130.372 47.4334 130.471 47.4827 130.572 47.5307C130.652 47.5694 130.735 47.604 130.816 47.6387C130.827 47.6427 130.833 47.648 130.843 47.652C130.849 47.6547 130.857 47.6587 130.864 47.6613C130.96 47.7013 131.057 47.7387 131.155 47.7747C131.251 47.8093 131.348 47.8413 131.444 47.872C131.473 47.8813 131.504 47.8894 131.533 47.8987C131.6 47.9174 131.668 47.9373 131.735 47.9533C131.829 47.9773 131.924 47.9987 132.02 48.0187C132.117 48.0374 132.213 48.0547 132.308 48.068C132.321 48.0693 132.333 48.0694 132.347 48.0707C132.357 48.0734 132.365 48.0733 132.376 48.0747C132.449 48.084 132.521 48.0933 132.593 48.0987C132.695 48.1067 132.793 48.112 132.891 48.1133C132.968 48.1147 133.043 48.1133 133.119 48.1093C133.129 48.1093 133.141 48.1093 133.152 48.1093C133.163 48.108 133.176 48.1093 133.188 48.108C133.293 48.104 133.397 48.0933 133.501 48.0813C133.612 48.0667 133.723 48.0467 133.829 48.024C133.84 48.0213 133.849 48.02 133.86 48.0173C133.873 48.0133 133.888 48.0093 133.903 48.0053C133.995 47.984 134.088 47.9614 134.177 47.9334C134.305 47.892 134.432 47.8453 134.555 47.7933L140.625 45.3133C140.457 45.3773 140.284 45.4307 140.105 45.472C140.091 45.4747 140.077 45.48 140.063 45.4827C139.835 45.5333 139.597 45.564 139.356 45.5747C139.344 45.5747 139.332 45.5747 139.321 45.576C139.08 45.5853 138.833 45.5733 138.579 45.5413C138.568 45.54 138.559 45.5387 138.548 45.5374C138.284 45.5027 138.013 45.4453 137.736 45.3653C137.505 45.2973 137.275 45.2134 137.045 45.1174C137.036 45.1147 137.028 45.1094 137.019 45.1054C136.804 45.0134 136.591 44.9093 136.38 44.7933C136.357 44.7813 136.335 44.7693 136.312 44.756C136.112 44.644 135.913 44.52 135.716 44.388C135.689 44.372 135.664 44.3533 135.637 44.3347C135.445 44.2027 135.255 44.06 135.069 43.908C135.032 43.88 134.997 43.8507 134.963 43.8213C134.771 43.6627 134.583 43.4973 134.4 43.3227L134.388 43.3133C134.208 43.1387 134.029 42.956 133.857 42.7653C133.787 42.6907 133.717 42.6107 133.648 42.532C133.544 42.4133 133.441 42.2907 133.34 42.1653C133.213 42.0107 133.092 41.8494 132.969 41.6867C132.901 41.5974 132.836 41.5107 132.771 41.42C132.449 40.964 132.148 40.48 131.872 39.9773C131.836 39.9093 131.796 39.8454 131.761 39.7774C131.705 39.676 131.656 39.572 131.603 39.468C131.515 39.2894 131.425 39.1107 131.343 38.928C131.316 38.8707 131.291 38.8147 131.264 38.756C131.155 38.508 131.051 38.256 130.953 38.0013L130.913 37.8987C130.816 37.632 130.724 37.364 130.639 37.0947C130.631 37.0654 130.621 37.0374 130.613 37.008C130.527 36.724 130.448 36.4387 130.379 36.1507C130.375 36.136 130.371 36.1227 130.369 36.108C130.297 35.8107 130.236 35.512 130.185 35.2107C130.18 35.1893 130.177 35.168 130.175 35.1454C130.125 34.8454 130.083 34.5427 130.053 34.24C130.011 33.7987 129.992 33.372 129.996 32.9614V32.9533C130 32.548 130.025 32.156 130.072 31.7827C130.075 31.772 130.076 31.7627 130.077 31.7533C130.123 31.4013 130.188 31.064 130.268 30.7413C130.276 30.7133 130.283 30.6827 130.291 30.6533C130.368 30.364 130.463 30.0907 130.568 29.8294C130.593 29.764 130.621 29.6987 130.648 29.636C130.727 29.456 130.819 29.2933 130.909 29.1293C130.972 29.0187 131.031 28.904 131.099 28.8014C131.197 28.6534 131.305 28.5213 131.413 28.3893C131.485 28.3027 131.551 28.208 131.627 28.128C131.753 27.9934 131.895 27.88 132.036 27.7653C132.105 27.708 132.168 27.6413 132.241 27.5893C132.46 27.4347 132.693 27.3 132.937 27.1933L126.735 29.728ZM140.625 45.3133C140.669 45.296 140.713 45.2787 140.757 45.26L140.625 45.3133Z" fill="url(#paint3_linear_1_10)"/>
<path d="M41.9587 172.7C41.724 172.711 41.4667 172.727 41.1853 172.751C37.628 173.02 34.284 174.196 31.3627 176.191C31.28 176.248 31.1947 176.303 31.1107 176.363C31.1 176.371 31.0907 176.377 31.0787 176.385C30.6293 176.696 30.1827 177.029 29.8267 177.332C29.8053 177.351 29.78 177.371 29.7573 177.391C29.4707 177.631 29.1613 177.903 28.8533 178.187C28.8027 178.231 28.752 178.275 28.704 178.317L28.5546 178.469C28.4506 178.568 28.3467 178.669 28.2467 178.769C28.0013 179.011 27.7693 179.251 27.5707 179.473C27.3893 179.675 27.22 179.871 27.056 180.068C27.0373 180.091 27.0187 180.112 26.9987 180.136C26.9427 180.203 26.8853 180.272 26.8306 180.339C26.7373 180.452 26.6533 180.56 26.5707 180.664C26.5667 180.671 26.56 180.679 26.5546 180.687C26.548 180.693 26.54 180.705 26.5333 180.712C24.3667 183.464 22.9786 186.669 22.452 190.129C22.4373 190.217 22.424 190.305 22.412 190.393C22.4067 190.432 22.4 190.472 22.3947 190.509C22.376 190.64 22.3613 190.763 22.3507 190.883C22.2467 191.713 22.196 192.532 22.1933 193.336C22.188 195.243 22.4533 197.068 22.9173 198.768C24.0053 202.956 26.1987 206.316 28.9467 208.655L28.9547 208.663C28.98 208.685 29.0027 208.707 29.028 208.729C29.1533 208.843 29.284 208.956 29.42 209.073C29.4733 209.117 29.5227 209.16 29.5773 209.205C29.6493 209.265 29.72 209.324 29.7867 209.38C29.7907 209.383 29.792 209.384 29.7947 209.385L29.796 209.387C29.8813 209.456 29.9627 209.523 30.0387 209.581C30.0413 209.587 30.0453 209.588 30.048 209.591C30.3733 209.849 30.5906 210.007 30.6066 210.019L30.608 210.02C30.8893 210.232 31.0693 210.36 31.3907 210.569C31.4067 210.581 31.4253 210.595 31.4427 210.605H31.444L31.4454 210.607C31.4454 210.607 31.4467 210.607 31.4467 210.608C31.4693 210.624 31.4933 210.636 31.5146 210.652C31.5386 210.667 31.5613 210.68 31.5853 210.695C31.7107 210.777 31.8427 210.863 31.9827 210.952L32.044 210.992L32.2813 211.136L32.3026 211.148L32.3093 211.152C32.5467 211.301 32.8627 211.475 33.1267 211.615C33.1307 211.616 33.1333 211.619 33.1387 211.621C33.164 211.635 33.1907 211.648 33.2133 211.66C33.264 211.687 33.3067 211.709 33.3493 211.732C33.3613 211.737 33.3733 211.745 33.3853 211.749C33.66 211.895 33.82 211.976 34.08 212.092C34.1027 212.104 34.1293 212.117 34.152 212.128C34.1547 212.129 34.16 212.132 34.164 212.133C34.34 212.215 34.5213 212.297 34.708 212.377C34.7827 212.409 34.856 212.439 34.9293 212.469C35.0147 212.505 35.0987 212.541 35.1853 212.576C35.276 212.615 35.3747 212.652 35.4773 212.692C35.8573 212.837 36.224 212.964 36.5853 213.081C36.592 213.083 36.6027 213.085 36.6107 213.089C38.6187 213.733 40.3 213.943 41.2813 214.005C41.368 214.012 41.4307 214.016 41.4653 214.016C41.7253 214.031 41.9786 214.044 42.2386 214.053C42.3146 214.056 42.3893 214.06 42.468 214.064C42.7693 214.077 43.2653 214.075 43.828 214.048C44.9067 214.007 45.9533 213.879 46.948 213.673C47.1027 213.643 47.2546 213.609 47.3946 213.576C47.5013 213.555 47.6173 213.527 47.7373 213.497C49.98 212.979 51.7587 212.173 53.08 211.4C53.188 211.337 53.2933 211.275 53.3933 211.213C53.408 211.204 53.4267 211.193 53.4427 211.184C54.6467 210.476 55.6707 209.709 56.536 208.948C56.5507 208.935 56.5667 208.92 56.5813 208.908C56.704 208.797 56.8253 208.689 56.9427 208.581C58.0227 207.588 59.1773 206.309 60.2386 204.672L60.24 204.671C60.772 203.887 61.412 202.785 62 201.357C62.1493 201.009 62.2973 200.617 62.4346 200.221C62.4706 200.125 62.5027 200.029 62.5333 199.933C62.5467 199.897 62.5573 199.859 62.5693 199.821C62.6053 199.713 62.64 199.605 62.6733 199.5C62.8467 198.94 62.992 198.393 63.1093 197.863C63.148 197.691 63.1853 197.516 63.2213 197.344C63.2253 197.321 63.2293 197.3 63.2347 197.279C63.2573 197.153 63.2813 197.031 63.3026 196.912C63.4813 195.911 63.564 194.973 63.5867 194.108C63.5907 193.944 63.592 193.779 63.5947 193.613C63.596 193.54 63.596 193.472 63.596 193.401C63.596 193.351 63.5973 193.301 63.596 193.251C63.596 193.233 63.596 193.216 63.596 193.199C63.596 193.169 63.5947 193.141 63.5947 193.111C63.5933 193.079 63.5947 193.044 63.5933 193.013C63.592 192.956 63.5906 192.893 63.5893 192.833C63.5573 191.727 63.4533 190.876 63.3453 190.181L63.3373 190.123C63.3373 190.124 63.3373 190.125 63.3373 190.127V190.125C63.3373 190.127 63.3373 190.127 63.3373 190.127C63.332 190.097 63.328 190.067 63.3227 190.036C63.3173 190.004 63.3107 189.971 63.3053 189.939C63.264 189.652 63.1946 189.325 63.1186 188.995C63.0826 188.815 63.044 188.636 63.0053 188.479C62.9027 188.055 62.7507 187.492 62.6133 187.079C62.612 187.076 62.6093 187.071 62.608 187.065C62.5453 186.865 62.476 186.667 62.4107 186.476C62.4093 186.475 62.4093 186.472 62.408 186.468C62.4067 186.464 62.4027 186.459 62.4013 186.452C62.3613 186.337 62.32 186.224 62.2813 186.121C62.2253 185.973 62.1693 185.836 62.1147 185.697C61.948 185.271 61.7613 184.839 61.5507 184.4C61.548 184.396 61.5466 184.391 61.544 184.387C61.3786 184.041 61.2013 183.692 61.0027 183.337C60.0253 181.549 58.788 179.94 57.3026 178.515C56.552 177.768 55.5973 176.976 54.4813 176.228L54.3573 176.145L54.352 176.141L54.3413 176.133C54.04 175.933 53.7346 175.739 53.3946 175.539C53.1706 175.403 52.9053 175.257 52.6747 175.136C52.6707 175.133 52.6653 175.132 52.6613 175.129C52.6373 175.116 52.6133 175.103 52.5907 175.091H52.5893C52.5893 175.089 52.588 175.089 52.5867 175.088C52.2093 174.892 52.0413 174.803 51.7506 174.671C51.7173 174.656 51.6853 174.64 51.6547 174.625H51.6533C51.3373 174.475 51.112 174.373 50.8187 174.257C50.6333 174.18 50.4467 174.105 50.2573 174.033C50.2467 174.028 50.2347 174.023 50.224 174.02C49.9813 173.927 49.7347 173.839 49.4853 173.755C49.4773 173.752 49.4666 173.748 49.4573 173.745C49.24 173.672 49.0227 173.603 48.8 173.539C48.6427 173.489 48.4907 173.449 48.3387 173.407C48.28 173.391 48.2227 173.373 48.1627 173.359C46.6107 172.947 45.328 172.797 44.5187 172.744C44.432 172.737 44.3693 172.735 44.3347 172.732H44.3333C43.9587 172.705 43.612 172.689 43.3333 172.687C43.244 172.685 43.1467 172.684 43.048 172.683H43.024H43C42.932 172.681 42.86 172.681 42.7867 172.681C42.5427 172.681 42.2693 172.687 41.9587 172.7Z" fill="url(#paint4_radial_1_10)"/>
<mask id="mask0_1_10" style="mask-type:luminance" maskUnits="userSpaceOnUse" x="22" y="172" width="42" height="43">
<path d="M41.1853 172.751C37.628 173.02 34.284 174.196 31.3627 176.191C31.28 176.248 31.1947 176.303 31.1107 176.363C31.1 176.371 31.0906 176.377 31.0786 176.385C30.6293 176.696 30.1826 177.029 29.8266 177.332C29.8053 177.351 29.78 177.371 29.7573 177.391C29.4706 177.631 29.1613 177.903 28.8533 178.187C28.8027 178.231 28.752 178.275 28.704 178.317L28.5546 178.469C28.4506 178.568 28.3467 178.669 28.2467 178.769C28.0013 179.011 27.7693 179.251 27.5707 179.473C27.3893 179.675 27.22 179.871 27.056 180.068C27.0373 180.091 27.0186 180.112 26.9986 180.136C26.9426 180.203 26.8853 180.272 26.8306 180.339C26.7373 180.452 26.6533 180.56 26.5707 180.664C26.5667 180.671 26.56 180.679 26.5546 180.687C26.548 180.693 26.54 180.705 26.5333 180.712C24.3666 183.464 22.9786 186.669 22.452 190.129C22.4373 190.217 22.424 190.305 22.412 190.393C22.4066 190.432 22.4 190.472 22.3946 190.509C22.376 190.64 22.3613 190.763 22.3507 190.883C21.9987 193.677 22.2573 196.351 22.9173 198.768C24.0053 202.956 26.1986 206.316 28.9466 208.655L28.9547 208.663C28.98 208.685 29.0027 208.707 29.028 208.729C29.1533 208.843 29.284 208.956 29.42 209.073C29.4733 209.117 29.5227 209.16 29.5773 209.205C29.6493 209.265 29.72 209.324 29.7867 209.38C29.7907 209.383 29.792 209.384 29.7947 209.385L29.796 209.387C29.8813 209.456 29.9626 209.523 30.0386 209.581C30.0413 209.587 30.0453 209.588 30.048 209.591C30.3733 209.849 30.5906 210.007 30.6066 210.019L30.608 210.02C30.8893 210.232 31.0693 210.36 31.3907 210.569C31.4067 210.581 31.4253 210.595 31.4427 210.605H31.444L31.4453 210.607C31.4453 210.607 31.4466 210.607 31.4466 210.608C31.4693 210.624 31.4933 210.636 31.5146 210.652C31.5386 210.667 31.5613 210.68 31.5853 210.695C31.7106 210.777 31.8427 210.863 31.9827 210.952L32.044 210.992L32.2813 211.136L32.3026 211.148L32.3093 211.152C32.5466 211.301 32.8627 211.475 33.1267 211.615C33.1307 211.616 33.1333 211.619 33.1387 211.621C33.164 211.635 33.1907 211.648 33.2133 211.66C33.264 211.687 33.3066 211.709 33.3493 211.732C33.3613 211.737 33.3733 211.745 33.3853 211.749C33.66 211.895 33.82 211.976 34.08 212.092C34.1027 212.104 34.1293 212.117 34.152 212.128C34.1547 212.129 34.16 212.132 34.164 212.133C34.34 212.215 34.5213 212.297 34.708 212.377C34.7827 212.409 34.856 212.439 34.9293 212.469C35.0146 212.505 35.0987 212.541 35.1853 212.576C35.276 212.615 35.3747 212.652 35.4773 212.692C35.8573 212.837 36.224 212.964 36.5853 213.081C36.592 213.083 36.6027 213.085 36.6107 213.089C38.6187 213.733 40.3 213.943 41.2813 214.005C41.368 214.012 41.4307 214.016 41.4653 214.016C41.7253 214.031 41.9786 214.044 42.2386 214.053C42.3146 214.056 42.3893 214.06 42.468 214.064C42.7693 214.077 43.2653 214.075 43.828 214.048C44.9067 214.007 45.9533 213.879 46.948 213.673C47.1027 213.643 47.2546 213.609 47.3946 213.576C47.5013 213.555 47.6173 213.527 47.7373 213.497C49.98 212.979 51.7587 212.173 53.08 211.4C53.188 211.337 53.2933 211.275 53.3933 211.213C53.408 211.204 53.4267 211.193 53.4427 211.184C54.6467 210.476 55.6707 209.709 56.536 208.948C56.5507 208.935 56.5667 208.92 56.5813 208.908C56.704 208.797 56.8253 208.689 56.9427 208.581C58.0227 207.588 59.1773 206.309 60.2386 204.672L60.24 204.671C60.772 203.887 61.412 202.785 62 201.357C62.1493 201.009 62.2973 200.617 62.4346 200.221C62.4706 200.125 62.5026 200.029 62.5333 199.933C62.5466 199.897 62.5573 199.859 62.5693 199.821C62.6053 199.713 62.64 199.605 62.6733 199.5C62.8467 198.94 62.992 198.393 63.1093 197.863C63.148 197.691 63.1853 197.516 63.2213 197.344C63.2253 197.321 63.2293 197.3 63.2346 197.279C63.2573 197.153 63.2813 197.031 63.3026 196.912C63.4813 195.911 63.564 194.973 63.5867 194.108C63.5907 193.944 63.592 193.779 63.5947 193.613C63.596 193.54 63.596 193.472 63.596 193.401C63.596 193.335 63.5973 193.268 63.596 193.199C63.596 193.169 63.5947 193.141 63.5947 193.111C63.5933 193.079 63.5947 193.044 63.5933 193.013C63.592 192.956 63.5906 192.893 63.5893 192.833C63.5573 191.727 63.4533 190.876 63.3453 190.181L63.3373 190.123C63.3373 190.124 63.3373 190.125 63.3373 190.127C63.3266 190.063 63.316 190 63.3053 189.939C63.264 189.652 63.1946 189.325 63.1186 188.995C63.0826 188.815 63.044 188.636 63.0053 188.479C62.9027 188.055 62.7506 187.492 62.6133 187.079C62.612 187.076 62.6093 187.071 62.608 187.065C62.5453 186.865 62.476 186.667 62.4107 186.476C62.4093 186.475 62.4093 186.472 62.408 186.468C62.4067 186.464 62.4026 186.459 62.4013 186.452C62.3613 186.337 62.32 186.224 62.2813 186.121C62.2253 185.973 62.1693 185.836 62.1147 185.697C61.948 185.271 61.7613 184.839 61.5506 184.4C61.548 184.396 61.5466 184.391 61.544 184.387C61.3786 184.041 61.2013 183.692 61.0027 183.337C60.0253 181.549 58.788 179.94 57.3026 178.515C56.552 177.768 55.5973 176.976 54.4813 176.228L54.3573 176.145L54.352 176.141L54.3413 176.133C54.04 175.933 53.7346 175.739 53.3946 175.539C53.1706 175.403 52.9053 175.257 52.6747 175.136C52.6707 175.133 52.6653 175.132 52.6613 175.129C52.6373 175.116 52.6133 175.103 52.5906 175.091H52.5893C52.5893 175.089 52.588 175.089 52.5867 175.088C52.2093 174.892 52.0413 174.803 51.7506 174.671C51.7173 174.656 51.6853 174.64 51.6547 174.625H51.6533C51.3373 174.475 51.112 174.373 50.8187 174.257C50.6333 174.18 50.4466 174.105 50.2573 174.033C50.2466 174.028 50.2347 174.023 50.224 174.02C49.9813 173.927 49.7347 173.839 49.4853 173.755C49.4773 173.752 49.4666 173.748 49.4573 173.745C49.24 173.672 49.0227 173.603 48.8 173.539C48.6427 173.489 48.4907 173.449 48.3387 173.407C48.28 173.391 48.2227 173.373 48.1627 173.359C46.6107 172.947 45.328 172.797 44.5187 172.744C44.432 172.737 44.3693 172.735 44.3347 172.732H44.3333C43.9587 172.705 43.612 172.689 43.3333 172.687C43.244 172.685 43.1467 172.684 43.048 172.683H43.024H43C42.932 172.681 42.86 172.681 42.7867 172.681C42.356 172.681 41.836 172.696 41.1853 172.751Z" fill="white"/>
</mask>
<g mask="url(#mask0_1_10)">
<path d="M40.4583 194.585C36.7543 199.891 29.1196 199.759 27.6756 192.623C26.1023 184.858 34.3983 180.146 42.6876 178.326C42.2943 181.974 42.5943 185.659 42.0943 189.302C41.7476 191.833 41.4289 193.194 40.4583 194.585Z" fill="#F6EEFF"/>
</g>
<path d="M242.491 130.044C241.725 130.124 241.02 130.208 240.377 130.292C239.967 130.341 239.669 130.384 239.505 130.408C239.503 130.408 239.5 130.408 239.496 130.409C237.712 130.633 236.061 130.884 234.745 131.125C234.317 131.204 233.867 131.287 233.393 131.375C233.357 131.381 233.317 131.388 233.281 131.395L233.171 131.419C230.957 131.84 228.216 132.42 224.689 133.436C208.176 138.029 193.519 146.693 181.624 158.817C181.281 159.163 180.937 159.511 180.592 159.864C180.549 159.909 180.505 159.955 180.464 159.999C178.641 161.883 176.851 163.869 175.451 165.629C175.363 165.74 175.269 165.861 175.179 165.972C174.049 167.372 172.851 168.939 171.668 170.569C171.469 170.821 171.267 171.08 171.08 171.323L170.521 172.176C170.121 172.747 169.729 173.313 169.347 173.88C168.421 175.245 167.549 176.588 166.82 177.829C166.157 178.943 165.543 180.032 164.953 181.108C164.884 181.232 164.817 181.355 164.749 181.481C164.545 181.855 164.34 182.229 164.144 182.597C163.815 183.213 163.509 183.804 163.228 184.368C163.208 184.409 163.188 184.448 163.167 184.488C163.143 184.535 163.115 184.589 163.092 184.637C156.144 198.269 152.576 213.083 152.561 228.295C152.56 229.796 152.593 231.301 152.661 232.809C152.676 233.241 152.696 233.664 152.717 234.093C152.729 234.284 152.736 234.473 152.748 234.663C152.784 235.289 152.831 235.881 152.884 236.455C153.843 249.953 157.559 262.3 162.924 273.079C171.961 291.788 185.439 305.571 200.564 314.024L200.611 314.051C200.747 314.132 200.88 314.213 201.016 314.295C201.715 314.711 202.435 315.128 203.188 315.548C203.473 315.708 203.757 315.867 204.047 316.025C204.448 316.247 204.833 316.456 205.204 316.655H205.207C205.208 316.656 205.209 316.656 205.209 316.656C205.221 316.663 205.231 316.668 205.241 316.675C205.241 316.675 205.244 316.675 205.245 316.676H205.248C205.719 316.929 206.161 317.161 206.572 317.373C206.593 317.384 206.613 317.395 206.632 317.405C208.403 318.319 209.572 318.856 209.664 318.897C209.665 318.897 209.665 318.897 209.665 318.897C211.188 319.64 212.164 320.079 213.865 320.756C213.957 320.795 214.06 320.84 214.148 320.88L214.152 320.881L214.159 320.884C214.163 320.885 214.167 320.887 214.169 320.888C214.293 320.939 214.415 320.983 214.539 321.032C214.657 321.079 214.777 321.125 214.901 321.173C215.569 321.444 216.268 321.72 217.019 322.004L217.344 322.136L218.603 322.595C218.637 322.607 218.671 322.62 218.704 322.631L218.741 322.645C219.999 323.128 221.653 323.649 223.021 324.06C223.043 324.067 223.065 324.075 223.087 324.081C223.216 324.119 223.356 324.161 223.477 324.199C223.731 324.273 223.964 324.341 224.185 324.407C224.247 324.425 224.308 324.443 224.371 324.461C225.796 324.881 226.632 325.115 227.963 325.425C228.081 325.456 228.212 325.492 228.327 325.52C228.349 325.525 228.375 325.532 228.397 325.536C229.301 325.759 230.231 325.973 231.184 326.177C231.565 326.259 231.937 326.329 232.315 326.407C232.751 326.493 233.181 326.585 233.627 326.668C234.085 326.764 234.588 326.852 235.108 326.939C237.025 327.272 238.877 327.529 240.681 327.74C240.728 327.744 240.769 327.751 240.816 327.755C250.88 328.913 258.995 328.327 263.684 327.707C264.093 327.657 264.392 327.616 264.556 327.592C265.799 327.413 266.997 327.236 268.229 327.037C268.592 326.984 268.949 326.931 269.317 326.876C270.747 326.653 273.089 326.179 275.715 325.532C280.759 324.323 285.567 322.745 290.061 320.848C290.761 320.556 291.444 320.265 292.073 319.977C292.56 319.772 293.08 319.535 293.617 319.283C303.696 314.748 311.328 309.288 316.829 304.408C317.281 304.011 317.721 303.62 318.129 303.243C318.191 303.185 318.268 303.112 318.333 303.053C323.341 298.599 327.452 294.024 330.821 289.628C330.88 289.553 330.937 289.475 330.995 289.401C331.477 288.769 331.943 288.141 332.395 287.517C336.556 281.837 340.799 274.724 344.269 266.024L344.271 266.021C346.048 261.831 348.035 256.049 349.467 248.76C349.847 246.985 350.184 245 350.461 243.008C350.532 242.52 350.595 242.039 350.659 241.557C350.683 241.371 350.7 241.184 350.721 240.997C350.787 240.451 350.848 239.913 350.905 239.383C351.205 236.581 351.377 233.876 351.435 231.261C351.457 230.411 351.473 229.557 351.475 228.712C351.475 228.607 351.473 228.5 351.472 228.395C351.472 227.787 351.464 227.189 351.449 226.601C351.367 221.721 350.875 217.228 350.171 213.131C350.043 212.349 349.896 211.568 349.749 210.792C349.688 210.448 349.621 210.121 349.559 209.791C349.493 209.473 349.439 209.157 349.372 208.84C349.341 208.696 349.309 208.567 349.279 208.424C349.248 208.273 349.217 208.111 349.185 207.964C349.127 207.693 349.055 207.404 348.989 207.123C347.807 201.933 346.527 198.028 345.367 194.853C345.335 194.764 345.305 194.673 345.273 194.587C345.287 194.625 345.3 194.668 345.313 194.708C345.195 194.383 345.075 194.057 344.96 193.749C344.488 192.436 343.859 190.961 343.192 189.479C342.847 188.655 342.503 187.851 342.176 187.148C341.295 185.248 340.055 182.744 339.019 180.923C339.009 180.907 338.996 180.887 338.987 180.871C338.495 179.983 337.993 179.107 337.499 178.271C337.493 178.261 337.487 178.252 337.481 178.241C337.467 178.219 337.451 178.192 337.436 178.167C337.139 177.665 336.84 177.168 336.56 176.72C336.159 176.076 335.769 175.484 335.379 174.881C334.2 173.027 332.913 171.163 331.511 169.289C331.497 169.273 331.483 169.256 331.471 169.239C330.364 167.763 329.204 166.285 327.936 164.801C321.659 157.289 314.332 150.863 306.004 145.532C301.767 142.716 296.533 139.883 290.569 137.397L289.909 137.119L289.908 137.117C289.899 137.115 289.892 137.111 289.884 137.108C289.863 137.099 289.844 137.091 289.823 137.084C288.22 136.421 286.599 135.793 284.809 135.169C283.629 134.74 282.237 134.299 281.043 133.94C281.017 133.932 280.995 133.927 280.969 133.917C280.851 133.881 280.72 133.843 280.605 133.808H280.603C280.601 133.808 280.6 133.807 280.599 133.807C280.596 133.805 280.588 133.804 280.584 133.801C278.623 133.221 277.744 132.964 276.255 132.611C276.083 132.567 275.912 132.525 275.761 132.487C275.76 132.487 275.756 132.485 275.753 132.485C274.124 132.068 272.968 131.807 271.477 131.531C270.533 131.339 269.581 131.163 268.621 130.997C268.563 130.988 268.508 130.979 268.452 130.968C267.22 130.76 265.979 130.573 264.724 130.412C264.677 130.405 264.632 130.4 264.585 130.393C263.493 130.255 262.397 130.129 261.291 130.028C260.508 129.953 259.753 129.9 258.996 129.845C258.704 129.825 258.417 129.796 258.123 129.779C257.079 129.713 256.061 129.665 255.076 129.632C253.948 129.595 252.859 129.577 251.812 129.577C248.145 129.577 244.996 129.784 242.491 130.044Z" fill="url(#paint5_radial_1_10)"/>
<mask id="mask1_1_10" style="mask-type:luminance" maskUnits="userSpaceOnUse" x="152" y="129" width="200" height="200">
<path d="M240.377 130.292C239.967 130.341 239.669 130.384 239.505 130.408C239.503 130.408 239.5 130.408 239.496 130.409C237.712 130.633 236.061 130.884 234.745 131.125C234.317 131.204 233.867 131.287 233.393 131.375C233.357 131.381 233.317 131.388 233.281 131.395L233.171 131.419C230.957 131.84 228.216 132.42 224.689 133.436C208.176 138.029 193.519 146.693 181.624 158.817C181.281 159.163 180.937 159.511 180.592 159.864C180.549 159.909 180.505 159.955 180.464 159.999C178.641 161.883 176.851 163.869 175.451 165.629C175.363 165.74 175.269 165.861 175.179 165.972C174.049 167.372 172.851 168.939 171.668 170.569C171.469 170.821 171.267 171.08 171.08 171.323L170.521 172.176C170.121 172.747 169.729 173.313 169.347 173.88C168.421 175.245 167.549 176.588 166.82 177.829C166.157 178.943 165.543 180.032 164.953 181.108C164.884 181.232 164.817 181.355 164.749 181.481C164.545 181.855 164.34 182.229 164.144 182.597C163.815 183.213 163.509 183.804 163.228 184.368C163.208 184.409 163.188 184.448 163.167 184.488C163.143 184.535 163.115 184.589 163.092 184.637C155.459 199.616 151.904 216.019 152.661 232.809C152.676 233.241 152.696 233.664 152.717 234.093C152.729 234.284 152.736 234.473 152.748 234.663C152.784 235.289 152.831 235.881 152.884 236.455C153.843 249.953 157.559 262.3 162.924 273.079C171.961 291.788 185.439 305.571 200.564 314.024L200.611 314.051C200.747 314.132 200.88 314.213 201.016 314.295C201.715 314.711 202.435 315.128 203.188 315.548C203.473 315.708 203.757 315.867 204.047 316.025C204.448 316.247 204.833 316.456 205.204 316.655H205.207C205.208 316.656 205.209 316.656 205.209 316.656C205.221 316.663 205.231 316.668 205.241 316.675C205.241 316.675 205.244 316.675 205.245 316.676H205.248C205.719 316.929 206.161 317.161 206.572 317.373C206.593 317.384 206.613 317.395 206.632 317.405C208.403 318.319 209.572 318.856 209.664 318.897C209.665 318.897 209.665 318.897 209.665 318.897C211.188 319.64 212.164 320.079 213.865 320.756C213.957 320.795 214.06 320.84 214.148 320.88L214.152 320.881L214.159 320.884C214.163 320.885 214.167 320.887 214.169 320.888C214.293 320.939 214.415 320.983 214.539 321.032C214.657 321.079 214.777 321.125 214.901 321.173C215.569 321.444 216.268 321.72 217.019 322.004L217.344 322.136L218.603 322.595C218.637 322.607 218.671 322.62 218.704 322.631L218.741 322.645C219.999 323.128 221.653 323.649 223.021 324.06C223.043 324.067 223.065 324.075 223.087 324.081C223.216 324.119 223.356 324.161 223.477 324.199C223.731 324.273 223.964 324.341 224.185 324.407C224.247 324.425 224.308 324.443 224.371 324.461C225.796 324.881 226.632 325.115 227.963 325.425C228.081 325.456 228.212 325.492 228.327 325.52C228.349 325.525 228.375 325.532 228.397 325.536C229.301 325.759 230.231 325.973 231.184 326.177C231.565 326.259 231.937 326.329 232.315 326.407C232.751 326.493 233.181 326.585 233.627 326.668C234.085 326.764 234.588 326.852 235.108 326.939C237.025 327.272 238.877 327.529 240.681 327.74C240.728 327.744 240.769 327.751 240.816 327.755C250.88 328.913 258.995 328.327 263.684 327.707C264.093 327.657 264.392 327.616 264.556 327.592C265.799 327.413 266.997 327.236 268.229 327.037C268.592 326.984 268.949 326.931 269.317 326.876C270.747 326.653 273.089 326.179 275.715 325.532C280.759 324.323 285.567 322.745 290.061 320.848C290.761 320.556 291.444 320.265 292.073 319.977C292.56 319.772 293.08 319.535 293.617 319.283C303.696 314.748 311.328 309.288 316.829 304.408C317.281 304.011 317.721 303.62 318.129 303.243C318.191 303.185 318.268 303.112 318.333 303.053C323.341 298.599 327.452 294.024 330.821 289.628C330.88 289.553 330.937 289.475 330.995 289.401C331.477 288.769 331.943 288.141 332.395 287.517C336.556 281.837 340.799 274.724 344.269 266.024L344.271 266.021C346.048 261.831 348.035 256.049 349.467 248.76C349.847 246.985 350.184 245 350.461 243.008C350.532 242.52 350.595 242.039 350.659 241.557C350.683 241.371 350.7 241.184 350.721 240.997C350.787 240.451 350.848 239.913 350.905 239.383C351.205 236.581 351.377 233.876 351.435 231.261C351.457 230.411 351.473 229.557 351.475 228.712C351.475 228.607 351.473 228.5 351.472 228.395C351.472 227.787 351.464 227.189 351.449 226.601C351.367 221.721 350.875 217.228 350.171 213.131C350.043 212.349 349.896 211.568 349.749 210.792C349.688 210.448 349.621 210.121 349.559 209.791C349.493 209.473 349.439 209.157 349.372 208.84C349.341 208.696 349.309 208.567 349.279 208.424C349.248 208.273 349.217 208.111 349.185 207.964C349.127 207.693 349.055 207.404 348.989 207.123C347.807 201.933 346.527 198.028 345.367 194.853C345.335 194.764 345.305 194.673 345.273 194.587C345.287 194.625 345.3 194.668 345.313 194.708C345.195 194.383 345.075 194.057 344.96 193.749C344.488 192.436 343.859 190.961 343.192 189.479C342.847 188.655 342.503 187.851 342.176 187.148C341.295 185.248 340.055 182.744 339.019 180.923C339.009 180.907 338.996 180.887 338.987 180.871C338.495 179.983 337.993 179.107 337.499 178.271C337.493 178.261 337.487 178.252 337.481 178.241C337.467 178.219 337.451 178.192 337.436 178.167C337.139 177.665 336.84 177.168 336.56 176.72C336.159 176.076 335.769 175.484 335.379 174.881C334.2 173.027 332.913 171.163 331.511 169.289C331.497 169.273 331.483 169.256 331.471 169.239C330.364 167.763 329.204 166.285 327.936 164.801C321.659 157.289 314.332 150.863 306.004 145.532C301.767 142.716 296.533 139.883 290.569 137.397L289.909 137.119L289.908 137.117C289.899 137.115 289.892 137.111 289.884 137.108C289.863 137.099 289.844 137.091 289.823 137.084C288.22 136.421 286.599 135.793 284.809 135.169C283.629 134.74 282.237 134.299 281.043 133.94C281.017 133.932 280.995 133.927 280.969 133.917C280.851 133.881 280.72 133.843 280.605 133.808H280.603C280.601 133.808 280.6 133.807 280.599 133.807C280.596 133.805 280.588 133.804 280.584 133.801C278.623 133.221 277.744 132.964 276.255 132.611C276.083 132.567 275.912 132.525 275.761 132.487C275.76 132.487 275.756 132.485 275.753 132.485C274.124 132.068 272.968 131.807 271.477 131.531C270.533 131.339 269.581 131.163 268.621 130.997C268.563 130.988 268.508 130.979 268.452 130.968C267.22 130.76 265.979 130.573 264.724 130.412C264.677 130.405 264.632 130.4 264.585 130.393C263.493 130.255 262.397 130.129 261.291 130.028C260.508 129.953 259.753 129.9 258.996 129.845C258.704 129.825 258.417 129.796 258.123 129.779C255.884 129.637 253.773 129.577 251.812 129.577C247.025 129.577 243.12 129.931 240.377 130.292Z" fill="white"/>
</mask>
<g mask="url(#mask1_1_10)">
<path d="M282.246 316.225C287.27 313.943 313.155 300.401 329.539 257.888C330.47 254.755 330.249 252.763 328.822 251.429C326.286 249.68 323.485 247.708 320.431 245.521C321.691 242.783 322.847 240.033 323.897 237.283C327.994 223.113 324.605 211.656 314.599 205.849C304.145 202.764 298.313 208.305 293.567 214.752C292.091 217.184 290.549 219.645 288.945 222.131C285.078 219.177 281.181 216.175 277.286 213.152C272.437 210.055 271.929 209.731 215.059 264.875C212.867 267.643 213.039 270.289 215.57 272.737C226.791 281.557 238.325 290.407 249.086 298.411C260.195 306.672 269.058 312.975 275.281 317.097C277.733 318.165 281.513 316.557 282.246 316.225ZM313.189 240.28C310.63 238.409 307.935 236.421 305.107 234.32C302.669 232.505 300.194 230.652 297.693 228.768C299.202 226.212 300.637 223.668 301.995 221.145C306.866 212.988 315.243 215.192 317.467 222.892C318.762 227.373 317.377 231.032 316.922 232.235C315.774 234.915 314.529 237.597 313.189 240.28ZM226.777 268.596C241.145 256.253 256.002 243.491 274.145 225.72C276.878 227.832 279.607 229.928 282.323 232.003C281.007 233.893 279.662 235.791 278.282 237.693C274.617 243.86 279.686 247.988 283.549 247.243C285.591 246.847 286.541 245.732 287.458 244.653C288.805 242.728 290.113 240.801 291.382 238.876C293.971 240.827 296.534 242.747 299.059 244.625C301.986 246.801 304.777 248.859 307.427 250.796C306.239 252.783 305.001 254.76 303.711 256.728C301.845 260.108 301.975 262.737 304.109 264.764C306.69 266.149 308.977 265.343 311.306 262.225C312.57 260.24 313.777 258.237 314.925 256.223C317.09 257.773 319.131 259.219 321.047 260.557C316.182 271.159 306.061 293.216 282.655 310.109C276.258 305.763 267.793 299.699 257.534 292.069C247.646 284.715 237.147 276.693 226.777 268.596Z" fill="white"/>
</g>
<path d="M281.776 16.64L199.403 33.7894C192.255 35.2774 183.517 42.408 179.877 49.72L85.464 239.457C81.82 246.781 84.6626 251.501 91.808 250.013L174.181 232.864C181.328 231.376 190.068 224.244 193.711 216.921L288.124 27.184C291.311 20.7813 289.528 16.3653 284.239 16.3653C283.487 16.3653 282.665 16.4547 281.776 16.64Z" fill="url(#paint6_linear_1_10)"/>
<path d="M289.043 18.7026C289.055 18.7213 289.067 18.7413 289.079 18.7626C289.225 19.0293 289.347 19.3133 289.444 19.6186C289.445 19.6213 289.445 19.624 289.447 19.6266C289.54 19.9293 289.608 20.2533 289.652 20.592C289.657 20.6213 289.657 20.6493 289.661 20.6786C289.697 20.9986 289.712 21.3346 289.704 21.6853C289.703 21.7293 289.699 21.7747 289.696 21.8187C289.681 22.168 289.645 22.528 289.585 22.904C289.575 22.96 289.563 23.0186 289.552 23.0746C289.492 23.4173 289.409 23.7693 289.311 24.132C289.292 24.2013 289.277 24.2693 289.256 24.3386C289.132 24.7626 288.985 25.1973 288.808 25.6453C288.613 26.144 288.388 26.656 288.124 27.184L193.711 216.921C193.613 217.12 193.497 217.317 193.391 217.513C193.143 217.976 192.879 218.435 192.592 218.893C192.497 219.045 192.405 219.2 192.305 219.351C191.937 219.917 191.549 220.477 191.132 221.031C191.001 221.203 190.861 221.369 190.728 221.539C190.512 221.813 190.299 222.087 190.071 222.357C189.751 222.737 189.421 223.112 189.08 223.483C189.023 223.545 188.964 223.607 188.905 223.669C188.567 224.033 188.219 224.391 187.863 224.743C187.82 224.785 187.777 224.825 187.735 224.867C187.369 225.225 186.996 225.575 186.615 225.919C186.572 225.956 186.527 225.996 186.483 226.035C186.103 226.375 185.716 226.704 185.324 227.025C185.275 227.067 185.224 227.107 185.173 227.148C184.784 227.464 184.389 227.771 183.991 228.068C183.936 228.109 183.88 228.151 183.825 228.191C183.427 228.484 183.025 228.767 182.621 229.041C182.564 229.079 182.505 229.117 182.447 229.156C182.041 229.425 181.633 229.685 181.224 229.931C181.163 229.968 181.1 230.005 181.037 230.041C180.624 230.288 180.207 230.524 179.791 230.745C179.732 230.775 179.675 230.804 179.616 230.833C179.241 231.031 178.863 231.213 178.489 231.388C178.409 231.425 178.331 231.463 178.252 231.497C177.835 231.687 177.417 231.861 177.001 232.019C176.821 232.088 176.641 232.145 176.46 232.209C176.196 232.303 175.929 232.397 175.667 232.476C175.167 232.628 174.671 232.761 174.181 232.864L91.808 250.013C88.6573 250.669 86.3427 250.119 85.0533 248.671L94.5347 259.313C95.824 260.76 98.1387 261.311 101.289 260.655L183.663 243.505C184.152 243.404 184.647 243.271 185.149 243.119C185.183 243.108 185.215 243.104 185.249 243.093C185.477 243.021 185.711 242.931 185.941 242.851C186.121 242.787 186.301 242.731 186.483 242.661C186.509 242.651 186.536 242.643 186.564 242.633C186.911 242.499 187.26 242.355 187.609 242.197C187.651 242.18 187.693 242.159 187.735 242.14C187.813 242.104 187.891 242.067 187.969 242.029C188.155 241.944 188.341 241.86 188.527 241.768C188.716 241.676 188.905 241.576 189.093 241.476C189.153 241.447 189.213 241.416 189.273 241.385C189.305 241.368 189.337 241.353 189.372 241.335C189.632 241.196 189.893 241.051 190.153 240.901C190.275 240.831 190.396 240.756 190.519 240.685C190.581 240.647 190.644 240.611 190.707 240.573C190.771 240.535 190.835 240.497 190.897 240.459C191.139 240.311 191.381 240.159 191.621 240.003C191.725 239.936 191.828 239.864 191.931 239.797C191.987 239.759 192.044 239.721 192.1 239.684C192.173 239.635 192.245 239.588 192.319 239.539C192.548 239.38 192.776 239.221 193.003 239.057C193.105 238.983 193.207 238.905 193.309 238.832C193.361 238.792 193.417 238.752 193.469 238.713C193.539 238.661 193.607 238.613 193.673 238.561C193.895 238.396 194.113 238.225 194.331 238.053C194.439 237.968 194.547 237.877 194.655 237.789C194.705 237.749 194.755 237.709 194.805 237.668C194.861 237.62 194.919 237.576 194.977 237.529C195.189 237.353 195.399 237.175 195.609 236.992C195.729 236.888 195.847 236.783 195.964 236.677C196.008 236.637 196.052 236.6 196.096 236.56C196.141 236.519 196.187 236.481 196.232 236.439C196.437 236.252 196.643 236.063 196.844 235.871C196.969 235.751 197.091 235.629 197.215 235.509C197.257 235.468 197.301 235.427 197.343 235.384C197.383 235.347 197.423 235.309 197.46 235.271C197.673 235.06 197.883 234.845 198.089 234.629C198.191 234.524 198.288 234.417 198.387 234.311C198.445 234.249 198.503 234.187 198.561 234.124C198.62 234.06 198.68 233.997 198.736 233.933C198.999 233.647 199.255 233.355 199.504 233.059C199.521 233.039 199.537 233.019 199.552 232.999C199.78 232.729 199.993 232.455 200.209 232.18C200.335 232.02 200.468 231.865 200.591 231.705C200.597 231.695 200.604 231.685 200.612 231.673C201.031 231.12 201.419 230.559 201.787 229.992C201.885 229.84 201.979 229.688 202.075 229.535C202.359 229.077 202.624 228.617 202.873 228.155C202.921 228.061 202.985 227.969 203.033 227.876C203.089 227.771 203.14 227.668 203.193 227.564L297.607 37.8253C297.868 37.2986 298.095 36.7866 298.291 36.2866C298.296 36.272 298.303 36.2587 298.309 36.244C298.465 35.844 298.599 35.4546 298.713 35.0746C298.723 35.0426 298.728 35.0133 298.737 34.9826C298.757 34.9106 298.773 34.844 298.791 34.772C298.847 34.5733 298.905 34.372 298.948 34.1786C298.983 34.0213 299.005 33.8706 299.033 33.7173C299.044 33.66 299.057 33.6013 299.065 33.5453C299.073 33.5066 299.081 33.4653 299.089 33.4293C299.121 33.204 299.148 32.984 299.164 32.7693C299.172 32.664 299.173 32.564 299.179 32.4613C299.18 32.416 299.183 32.372 299.184 32.3266C299.185 32.28 299.189 32.2306 299.189 32.1826C299.191 32.0013 299.185 31.8226 299.175 31.6493C299.168 31.5373 299.155 31.4293 299.141 31.3213C299.139 31.2933 299.137 31.2626 299.133 31.2333C299.129 31.2079 299.128 31.1773 299.125 31.1493C299.101 30.9933 299.075 30.8386 299.041 30.6893C299.007 30.5453 298.969 30.4039 298.927 30.2679C298.925 30.2653 298.925 30.2626 298.924 30.26C298.924 30.26 298.924 30.2573 298.923 30.2546C298.879 30.1146 298.829 29.9787 298.775 29.8467C298.719 29.7133 298.659 29.584 298.592 29.4586C298.583 29.44 298.569 29.4226 298.559 29.404C298.548 29.384 298.536 29.364 298.525 29.3453C298.476 29.26 298.428 29.1733 298.373 29.092C298.295 28.9733 298.209 28.8573 298.119 28.748C298.084 28.7053 298.049 28.6653 298.013 28.6253L288.532 17.984C288.727 18.2013 288.895 18.4426 289.043 18.7026Z" fill="url(#paint7_linear_1_10)"/>
<path d="M289.043 18.7026C289.055 18.7213 289.067 18.7413 289.079 18.7626C289.225 19.0293 289.347 19.3133 289.444 19.6186C289.445 19.6213 289.445 19.624 289.447 19.6266C289.54 19.9293 289.608 20.2533 289.652 20.592C289.657 20.6213 289.657 20.6493 289.661 20.6786C289.697 20.9986 289.712 21.3346 289.704 21.6853C289.703 21.7293 289.699 21.7747 289.696 21.8187C289.681 22.168 289.645 22.528 289.585 22.904C289.575 22.96 289.563 23.0186 289.552 23.0746C289.492 23.4173 289.409 23.7693 289.311 24.132C289.292 24.2013 289.277 24.2693 289.256 24.3386C289.132 24.7626 288.985 25.1973 288.808 25.6453C288.613 26.144 288.388 26.656 288.124 27.184L193.711 216.921C193.613 217.12 193.497 217.317 193.391 217.513C193.143 217.976 192.879 218.435 192.592 218.893C192.497 219.045 192.405 219.2 192.305 219.351C191.937 219.917 191.549 220.477 191.132 221.031C191.001 221.203 190.861 221.369 190.728 221.539C190.512 221.813 190.299 222.087 190.071 222.357C189.751 222.737 189.421 223.112 189.08 223.483C189.023 223.545 188.964 223.607 188.905 223.669C188.567 224.033 188.219 224.391 187.863 224.743C187.82 224.785 187.777 224.825 187.735 224.867C187.369 225.225 186.996 225.575 186.615 225.919C186.572 225.956 186.527 225.996 186.483 226.035C186.103 226.375 185.716 226.704 185.324 227.025C185.275 227.067 185.224 227.107 185.173 227.148C184.784 227.464 184.389 227.771 183.991 228.068C183.936 228.109 183.88 228.151 183.825 228.191C183.427 228.484 183.025 228.767 182.621 229.041C182.564 229.079 182.505 229.117 182.447 229.156C182.041 229.425 181.633 229.685 181.224 229.931C181.163 229.968 181.1 230.005 181.037 230.041C180.624 230.288 180.207 230.524 179.791 230.745C179.732 230.775 179.675 230.804 179.616 230.833C179.241 231.031 178.863 231.213 178.489 231.388C178.409 231.425 178.331 231.463 178.252 231.497C177.835 231.687 177.417 231.861 177.001 232.019C176.821 232.088 176.641 232.145 176.46 232.209C176.196 232.303 175.929 232.397 175.667 232.476C175.167 232.628 174.671 232.761 174.181 232.864L91.808 250.013C88.6573 250.669 86.3427 250.119 85.0533 248.671L94.5347 259.313C95.824 260.76 98.1387 261.311 101.289 260.655L183.663 243.505C184.152 243.404 184.647 243.271 185.149 243.119C185.183 243.108 185.215 243.104 185.249 243.093C185.477 243.021 185.711 242.931 185.941 242.851C186.121 242.787 186.301 242.731 186.483 242.661C186.509 242.651 186.536 242.643 186.564 242.633C186.911 242.499 187.26 242.355 187.609 242.197C187.651 242.18 187.693 242.159 187.735 242.14C187.813 242.104 187.891 242.067 187.969 242.029C188.155 241.944 188.341 241.86 188.527 241.768C188.716 241.676 188.905 241.576 189.093 241.476C189.153 241.447 189.213 241.416 189.273 241.385C189.305 241.368 189.337 241.353 189.372 241.335C189.632 241.196 189.893 241.051 190.153 240.901C190.275 240.831 190.396 240.756 190.519 240.685C190.581 240.647 190.644 240.611 190.707 240.573C190.771 240.535 190.835 240.497 190.897 240.459C191.139 240.311 191.381 240.159 191.621 240.003C191.725 239.936 191.828 239.864 191.931 239.797C191.987 239.759 192.044 239.721 192.1 239.684C192.173 239.635 192.245 239.588 192.319 239.539C192.548 239.38 192.776 239.221 193.003 239.057C193.105 238.983 193.207 238.905 193.309 238.832C193.361 238.792 193.417 238.752 193.469 238.713C193.539 238.661 193.607 238.613 193.673 238.561C193.895 238.396 194.113 238.225 194.331 238.053C194.439 237.968 194.547 237.877 194.655 237.789C194.705 237.749 194.755 237.709 194.805 237.668C194.861 237.62 194.919 237.576 194.977 237.529C195.189 237.353 195.399 237.175 195.609 236.992C195.729 236.888 195.847 236.783 195.964 236.677C196.008 236.637 196.052 236.6 196.096 236.56C196.141 236.519 196.187 236.481 196.232 236.439C196.437 236.252 196.643 236.063 196.844 235.871C196.969 235.751 197.091 235.629 197.215 235.509C197.257 235.468 197.301 235.427 197.343 235.384C197.383 235.347 197.423 235.309 197.46 235.271C197.673 235.06 197.883 234.845 198.089 234.629C198.191 234.524 198.288 234.417 198.387 234.311C198.445 234.249 198.503 234.187 198.561 234.124C198.62 234.06 198.68 233.997 198.736 233.933C198.999 233.647 199.255 233.355 199.504 233.059C199.521 233.039 199.537 233.019 199.552 232.999C199.78 232.729 199.993 232.455 200.209 232.18C200.335 232.02 200.468 231.865 200.591 231.705C200.597 231.695 200.604 231.685 200.612 231.673C201.031 231.12 201.419 230.559 201.787 229.992C201.885 229.84 201.979 229.688 202.075 229.535C202.359 229.077 202.624 228.617 202.873 228.155C202.921 228.061 202.985 227.969 203.033 227.876C203.089 227.771 203.14 227.668 203.193 227.564L297.607 37.8253C297.868 37.2986 298.095 36.7866 298.291 36.2866C298.296 36.272 298.303 36.2587 298.309 36.244C298.465 35.844 298.599 35.4546 298.713 35.0746C298.723 35.0426 298.728 35.0133 298.737 34.9826C298.757 34.9106 298.773 34.844 298.791 34.772C298.847 34.5733 298.905 34.372 298.948 34.1786C298.983 34.0213 299.005 33.8706 299.033 33.7173C299.044 33.66 299.057 33.6013 299.065 33.5453C299.073 33.5066 299.081 33.4653 299.089 33.4293C299.121 33.204 299.148 32.984 299.164 32.7693C299.172 32.664 299.173 32.564 299.179 32.4613C299.18 32.416 299.183 32.372 299.184 32.3266C299.185 32.28 299.189 32.2306 299.189 32.1826C299.191 32.0013 299.185 31.8226 299.175 31.6493C299.168 31.5373 299.155 31.4293 299.141 31.3213C299.139 31.2933 299.137 31.2626 299.133 31.2333C299.129 31.2079 299.128 31.1773 299.125 31.1493C299.101 30.9933 299.075 30.8386 299.041 30.6893C299.007 30.5453 298.969 30.4039 298.927 30.2679C298.925 30.2653 298.925 30.2626 298.924 30.26C298.924 30.26 298.924 30.2573 298.923 30.2546C298.879 30.1146 298.829 29.9787 298.775 29.8467C298.719 29.7133 298.659 29.584 298.592 29.4586C298.583 29.44 298.569 29.4226 298.559 29.404C298.548 29.384 298.536 29.364 298.525 29.3453C298.476 29.26 298.428 29.1733 298.373 29.092C298.295 28.9733 298.209 28.8573 298.119 28.748C298.084 28.7053 298.049 28.6653 298.013 28.6253L288.532 17.984C288.727 18.2013 288.895 18.4426 289.043 18.7026Z" fill="#615D87"/>
<path d="M280.58 19.044L259.597 23.412C258.496 23.6413 257.232 24.2547 256.023 25.156L251.372 28.6293C250.164 29.532 248.901 30.1454 247.801 30.3747L225.981 34.9173C224.88 35.1453 224.005 34.9787 223.52 34.4293L221.649 32.312C221.164 31.764 220.289 31.596 219.188 31.8253L198.205 36.1933C192.361 37.4107 185.203 43.252 182.228 49.232L87.8133 238.968C84.8333 244.96 87.1667 248.815 93.0107 247.597L175.384 230.448C181.228 229.232 188.38 223.401 191.361 217.412L285.775 27.6734C288.38 22.436 286.92 18.82 282.591 18.82C281.977 18.82 281.305 18.8933 280.58 19.044Z" fill="url(#paint8_linear_1_10)"/>
<path d="M259.597 23.412C258.496 23.6413 257.232 24.2547 256.023 25.1574L251.372 28.6293C250.164 29.532 248.901 30.1454 247.801 30.3747L225.981 34.9173C224.88 35.1453 224.005 34.9787 223.52 34.4293L221.649 32.312C221.164 31.764 220.289 31.596 219.188 31.8253L213.395 33.032L175.72 62.3107L145.972 122.091L277.832 19.616L259.597 23.412ZM133.415 147.331L125.328 163.58L276.675 45.96L284.761 29.7094L133.415 147.331ZM118.124 178.057L114.397 185.548L265.743 67.9293L269.472 60.4373L118.124 178.057ZM104.443 205.553L87.8133 238.968C84.8333 244.96 87.1667 248.815 93.0107 247.597L125.632 240.805L213.825 172.268L255.789 87.932L104.443 205.553ZM140.569 237.696L148.645 236.015L203.201 193.616L206.931 186.125L140.569 237.696Z" fill="url(#paint9_linear_1_10)"/>
<path d="M136.069 71.7987C135.869 71.824 135.725 71.8427 135.644 71.8547C135.643 71.8547 135.641 71.8547 135.64 71.856C134.771 71.9653 133.967 72.0867 133.324 72.2053C133.116 72.2427 132.896 72.284 132.665 72.3267C132.649 72.3307 132.628 72.3333 132.612 72.336L132.557 72.348C131.477 72.552 130.143 72.836 128.424 73.3306C120.373 75.5706 113.228 79.7933 107.429 85.704C107.261 85.872 107.095 86.0427 106.927 86.2147C106.907 86.2373 106.884 86.2586 106.863 86.28C105.975 87.1986 105.103 88.168 104.42 89.024C104.379 89.0787 104.332 89.1373 104.288 89.1933C103.737 89.8746 103.153 90.6387 102.576 91.432C102.481 91.556 102.38 91.6813 102.289 91.8L102.016 92.2173C101.821 92.4933 101.631 92.7707 101.445 93.0467C100.992 93.712 100.569 94.3667 100.213 94.972C99.8893 95.516 99.5906 96.0453 99.3026 96.5707C99.2679 96.632 99.2373 96.6907 99.204 96.752C99.104 96.9333 99.004 97.1173 98.908 97.2973C98.7493 97.5973 98.5986 97.884 98.4613 98.16C98.452 98.18 98.4413 98.1987 98.432 98.2173C98.42 98.2413 98.4066 98.2667 98.3946 98.2893C94.9946 104.964 93.2533 112.22 93.2626 119.668C93.2639 120.368 93.28 121.071 93.312 121.773C93.3173 121.984 93.328 122.191 93.3386 122.4C93.344 122.493 93.3466 122.584 93.352 122.677C93.372 122.983 93.3933 123.271 93.42 123.551C93.8866 130.131 95.6986 136.148 98.312 141.404C102.719 150.524 109.289 157.243 116.663 161.363C116.669 161.367 116.677 161.372 116.685 161.376C116.751 161.417 116.816 161.456 116.883 161.495C117.223 161.697 117.575 161.901 117.941 162.105C118.081 162.184 118.219 162.261 118.359 162.339C118.556 162.447 118.743 162.548 118.924 162.645H118.925C118.925 162.647 118.927 162.647 118.927 162.647L118.943 162.656C118.943 162.656 118.943 162.657 118.944 162.657H118.945C119.173 162.78 119.391 162.893 119.592 162.996C119.601 163.001 119.611 163.007 119.619 163.012C120.483 163.456 121.053 163.719 121.097 163.737L121.099 163.739H121.1C121.841 164.101 122.317 164.315 123.145 164.645C123.191 164.664 123.241 164.685 123.284 164.707H123.287L123.289 164.708C123.289 164.709 123.292 164.709 123.295 164.709C123.353 164.733 123.413 164.756 123.473 164.78C123.532 164.803 123.591 164.825 123.651 164.849C123.977 164.981 124.317 165.116 124.683 165.253L124.841 165.319L125.456 165.541C125.472 165.548 125.488 165.553 125.505 165.56L125.523 165.567C126.136 165.801 126.943 166.056 127.609 166.256C127.62 166.259 127.631 166.261 127.643 166.265C127.705 166.284 127.772 166.305 127.832 166.323C127.956 166.36 128.068 166.393 128.177 166.424L128.267 166.452C128.963 166.656 129.369 166.769 130.019 166.921C130.076 166.936 130.141 166.953 130.195 166.967C130.207 166.969 130.22 166.973 130.231 166.976C130.671 167.084 131.124 167.188 131.591 167.288C131.775 167.328 131.955 167.361 132.139 167.4C132.351 167.443 132.563 167.485 132.78 167.528C133.003 167.575 133.248 167.617 133.501 167.659C134.436 167.821 135.339 167.947 136.219 168.049C136.24 168.052 136.263 168.055 136.284 168.057C141.191 168.62 145.145 168.336 147.431 168.033C147.632 168.009 147.776 167.989 147.856 167.977C148.463 167.891 149.047 167.805 149.647 167.708C149.824 167.681 149.999 167.655 150.177 167.627C150.875 167.52 152.017 167.288 153.296 166.975C155.755 166.384 158.099 165.615 160.289 164.691C160.631 164.548 160.964 164.407 161.271 164.265C161.508 164.165 161.763 164.051 162.024 163.928C166.936 161.716 170.656 159.055 173.339 156.676C173.557 156.481 173.775 156.292 173.971 156.108C174.001 156.08 174.04 156.045 174.072 156.016C176.513 153.844 178.516 151.615 180.159 149.471C180.188 149.435 180.216 149.397 180.243 149.361C180.479 149.052 180.705 148.747 180.925 148.443C182.953 145.673 185.021 142.207 186.715 137.964V137.963C187.583 135.921 188.549 133.101 189.249 129.549C189.435 128.685 189.597 127.715 189.733 126.744C189.767 126.507 189.797 126.272 189.829 126.037C189.841 125.947 189.849 125.856 189.861 125.765C189.892 125.497 189.923 125.236 189.949 124.977C190.096 123.612 190.179 122.293 190.207 121.019C190.219 120.605 190.225 120.189 190.228 119.776C190.225 119.724 190.225 119.673 190.225 119.621C190.225 119.324 190.221 119.035 190.215 118.748C190.175 116.368 189.935 114.177 189.591 112.181C189.529 111.8 189.457 111.419 189.385 111.04C189.356 110.873 189.325 110.713 189.292 110.553C189.261 110.397 189.235 110.243 189.203 110.088C189.188 110.019 189.172 109.956 189.157 109.887C189.143 109.812 189.127 109.735 189.111 109.661C189.083 109.529 189.047 109.389 189.015 109.252C188.439 106.723 187.815 104.817 187.249 103.271C187.235 103.228 187.22 103.184 187.204 103.14C187.211 103.16 187.217 103.18 187.224 103.199C187.165 103.041 187.108 102.883 187.051 102.732C186.821 102.093 186.515 101.373 186.191 100.652C186.021 100.249 185.853 99.8573 185.693 99.5133C185.265 98.588 184.66 97.3666 184.155 96.48C184.149 96.4733 184.144 96.464 184.14 96.4533C183.9 96.0213 183.656 95.5946 183.413 95.188C183.411 95.1826 183.409 95.1787 183.407 95.1733C183.397 95.1627 183.391 95.148 183.384 95.136C183.239 94.892 183.092 94.6507 182.957 94.432C182.761 94.1173 182.571 93.828 182.381 93.536C181.805 92.632 181.177 91.7227 180.495 90.8093C180.488 90.8013 180.483 90.792 180.475 90.784C179.936 90.0653 179.371 89.344 178.753 88.6213C175.693 84.9587 172.121 81.8266 168.061 79.228C165.996 77.8546 163.444 76.4733 160.539 75.2613L160.216 75.1267C160.212 75.1253 160.207 75.1227 160.203 75.1213C160.192 75.116 160.184 75.1133 160.173 75.1093C159.392 74.7867 158.601 74.4813 157.729 74.176C157.155 73.9666 156.475 73.752 155.893 73.5773C155.881 73.5733 155.869 73.5693 155.857 73.5666C155.799 73.548 155.736 73.5293 155.68 73.5133L155.677 73.512C155.675 73.512 155.672 73.5093 155.669 73.5093C154.713 73.2266 154.285 73.1013 153.56 72.9293C153.475 72.9093 153.392 72.8867 153.319 72.8693C153.317 72.8693 153.316 72.868 153.315 72.868C152.521 72.6653 151.957 72.5373 151.231 72.404C150.771 72.3093 150.305 72.224 149.839 72.1427C149.811 72.1387 149.784 72.1333 149.755 72.128C149.155 72.0267 148.551 71.9373 147.939 71.856C147.915 71.8533 147.893 71.852 147.869 71.848C147.339 71.7813 146.805 71.72 146.265 71.6706C145.883 71.6333 145.515 71.608 145.145 71.5813C145.004 71.572 144.864 71.5573 144.721 71.5493C143.629 71.48 142.6 71.4507 141.644 71.4507C139.311 71.4507 137.407 71.6227 136.069 71.7987Z" fill="url(#paint10_radial_1_10)"/>
<mask id="mask2_1_10" style="mask-type:luminance" maskUnits="userSpaceOnUse" x="93" y="71" width="98" height="98">
<path d="M136.069 71.7987C135.869 71.824 135.725 71.8427 135.644 71.8547C135.643 71.8547 135.641 71.8547 135.64 71.856C134.771 71.9653 133.967 72.0867 133.324 72.2053C133.116 72.2427 132.896 72.284 132.665 72.3267C132.649 72.3307 132.628 72.3333 132.612 72.336L132.557 72.348C131.477 72.552 130.143 72.836 128.424 73.3306C120.373 75.5706 113.228 79.7933 107.429 85.704C107.261 85.872 107.095 86.0427 106.927 86.2147C106.907 86.2373 106.884 86.2586 106.863 86.28C105.975 87.1986 105.103 88.168 104.42 89.024C104.379 89.0787 104.332 89.1373 104.288 89.1933C103.737 89.8746 103.153 90.6387 102.576 91.432C102.481 91.556 102.38 91.6813 102.289 91.8L102.016 92.2173C101.821 92.4933 101.631 92.7707 101.445 93.0467C100.992 93.712 100.569 94.3667 100.213 94.972C99.8893 95.516 99.5906 96.0453 99.3026 96.5707C99.268 96.632 99.2373 96.6907 99.204 96.752C99.104 96.9333 99.004 97.1173 98.908 97.2973C98.7493 97.5973 98.5987 97.884 98.4613 98.16C98.452 98.18 98.4413 98.1987 98.432 98.2173C98.42 98.2413 98.4066 98.2667 98.3946 98.2893C94.6746 105.592 92.9413 113.588 93.312 121.773C93.3173 121.984 93.328 122.191 93.3386 122.4C93.344 122.493 93.3467 122.584 93.352 122.677C93.372 122.983 93.3933 123.271 93.42 123.551C93.8867 130.131 95.6987 136.148 98.312 141.404C102.719 150.524 109.289 157.243 116.663 161.363C116.669 161.367 116.677 161.372 116.685 161.376C116.751 161.417 116.816 161.456 116.883 161.495C117.223 161.697 117.575 161.901 117.941 162.105C118.081 162.184 118.219 162.261 118.359 162.339C118.556 162.447 118.743 162.548 118.924 162.645H118.925C118.925 162.647 118.927 162.647 118.927 162.647L118.943 162.656C118.943 162.656 118.943 162.657 118.944 162.657H118.945C119.173 162.78 119.391 162.893 119.592 162.996C119.601 163.001 119.611 163.007 119.619 163.012C120.483 163.456 121.053 163.719 121.097 163.737L121.099 163.739H121.1C121.841 164.101 122.317 164.315 123.145 164.645C123.191 164.664 123.241 164.685 123.284 164.707H123.287L123.289 164.708C123.289 164.709 123.292 164.709 123.295 164.709C123.353 164.733 123.413 164.756 123.473 164.78C123.532 164.803 123.591 164.825 123.651 164.849C123.977 164.981 124.317 165.116 124.683 165.253L124.841 165.319L125.456 165.541C125.472 165.548 125.488 165.553 125.505 165.56L125.523 165.567C126.136 165.801 126.943 166.056 127.609 166.256C127.62 166.259 127.631 166.261 127.643 166.265C127.705 166.284 127.772 166.305 127.832 166.323C127.956 166.36 128.068 166.393 128.177 166.424L128.267 166.452C128.963 166.656 129.369 166.769 130.019 166.921C130.076 166.936 130.141 166.953 130.195 166.967C130.207 166.969 130.22 166.973 130.231 166.976C130.671 167.084 131.124 167.188 131.591 167.288C131.775 167.328 131.955 167.361 132.139 167.4C132.351 167.443 132.563 167.485 132.78 167.528C133.003 167.575 133.248 167.617 133.501 167.659C134.436 167.821 135.339 167.947 136.219 168.049C136.24 168.052 136.263 168.055 136.284 168.057C141.191 168.62 145.145 168.336 147.431 168.033C147.632 168.009 147.776 167.989 147.856 167.977C148.463 167.891 149.047 167.805 149.647 167.708C149.824 167.681 149.999 167.655 150.177 167.627C150.875 167.52 152.017 167.288 153.296 166.975C155.755 166.384 158.099 165.615 160.289 164.691C160.631 164.548 160.964 164.407 161.271 164.265C161.508 164.165 161.763 164.051 162.024 163.928C166.936 161.716 170.656 159.055 173.339 156.676C173.557 156.481 173.775 156.292 173.971 156.108C174.001 156.08 174.04 156.045 174.072 156.016C176.513 153.844 178.516 151.615 180.159 149.471C180.188 149.435 180.216 149.397 180.243 149.361C180.479 149.052 180.705 148.747 180.925 148.443C182.953 145.673 185.021 142.207 186.715 137.964V137.963C187.583 135.921 188.549 133.101 189.249 129.549C189.435 128.685 189.597 127.715 189.733 126.744C189.767 126.507 189.797 126.272 189.829 126.037C189.841 125.947 189.849 125.856 189.861 125.765C189.892 125.497 189.923 125.236 189.949 124.977C190.096 123.612 190.179 122.293 190.207 121.019C190.219 120.605 190.225 120.189 190.228 119.776C190.225 119.724 190.225 119.673 190.225 119.621C190.225 119.324 190.221 119.035 190.215 118.748C190.175 116.368 189.935 114.177 189.591 112.181C189.529 111.8 189.457 111.419 189.385 111.04C189.356 110.873 189.325 110.713 189.292 110.553C189.261 110.397 189.235 110.243 189.203 110.088C189.188 110.019 189.172 109.956 189.157 109.887C189.143 109.812 189.127 109.735 189.111 109.661C189.083 109.529 189.047 109.389 189.015 109.252C188.439 106.723 187.815 104.817 187.249 103.271C187.235 103.228 187.22 103.184 187.204 103.14C187.211 103.16 187.217 103.18 187.224 103.199C187.165 103.041 187.108 102.883 187.051 102.732C186.821 102.093 186.515 101.373 186.191 100.652C186.021 100.249 185.853 99.8573 185.693 99.5133C185.265 98.588 184.66 97.3666 184.155 96.48C184.149 96.4733 184.144 96.464 184.14 96.4533C183.9 96.0213 183.656 95.5946 183.413 95.188C183.411 95.1826 183.409 95.1787 183.407 95.1733C183.397 95.1627 183.391 95.148 183.384 95.136C183.239 94.892 183.092 94.6507 182.957 94.432C182.761 94.1173 182.571 93.828 182.381 93.536C181.805 92.632 181.177 91.7227 180.495 90.8093C180.488 90.8013 180.483 90.792 180.475 90.784C179.936 90.0653 179.371 89.344 178.753 88.6213C175.693 84.9587 172.121 81.8266 168.061 79.228C165.996 77.8546 163.444 76.4733 160.539 75.2613L160.216 75.1267C160.212 75.1253 160.207 75.1227 160.203 75.1213C160.192 75.116 160.184 75.1133 160.173 75.1093C159.392 74.7867 158.601 74.4813 157.729 74.176C157.155 73.9666 156.475 73.752 155.893 73.5773C155.881 73.5733 155.869 73.5693 155.857 73.5666C155.799 73.548 155.736 73.5293 155.68 73.5133L155.677 73.512C155.675 73.512 155.672 73.5093 155.669 73.5093C154.713 73.2266 154.285 73.1013 153.56 72.9293C153.475 72.9093 153.392 72.8867 153.319 72.8693C153.317 72.8693 153.316 72.868 153.315 72.868C152.521 72.6653 151.957 72.5373 151.231 72.404C150.771 72.3093 150.305 72.224 149.839 72.1427C149.811 72.1387 149.784 72.1333 149.755 72.128C149.155 72.0267 148.551 71.9373 147.939 71.856C147.915 71.8533 147.893 71.852 147.869 71.848C147.339 71.7813 146.805 71.72 146.265 71.6706C145.883 71.6333 145.515 71.608 145.145 71.5813C145.004 71.572 144.864 71.5573 144.721 71.5493C143.629 71.48 142.6 71.4507 141.644 71.4507C139.311 71.4507 137.407 71.6227 136.069 71.7987Z" fill="white"/>
</mask>
<g mask="url(#mask2_1_10)">
<g opacity="0.699997">
<mask id="mask3_1_10" style="mask-type:luminance" maskUnits="userSpaceOnUse" x="99" y="76" width="46" height="59">
<path d="M99.8573 76.66H144.397V134.092H99.8573V76.66Z" fill="white"/>
</mask>
<g mask="url(#mask3_1_10)">
<mask id="mask4_1_10" style="mask-type:luminance" maskUnits="userSpaceOnUse" x="99" y="76" width="46" height="59">
<path d="M99.8573 76.66H144.397V134.092H99.8573V76.66Z" fill="white"/>
</mask>
<g mask="url(#mask4_1_10)">
<path d="M134.6 98.4551C125.85 88.5751 120.026 88.5764 119.902 91.8724C119.852 93.1191 121.296 93.9977 124.462 95.9244C133.103 101.188 134.544 105.946 134.231 109.011C133.5 116.176 129.85 124.602 116.616 124.051C116.047 127.47 115.683 130.838 115.526 134.092C114.623 133.839 113.728 133.603 112.848 133.386C111.419 133.035 110.075 132.746 108.816 132.516C108.524 129.092 108.503 125.564 108.76 121.998C104.192 119.872 101.947 117.979 99.8563 114.495C101.267 110.523 102.118 108.124 105.07 103.248C108.823 111.068 118.224 114.344 119.132 110.64C119.623 108.646 117.999 107.334 114.176 105.148C96.7429 95.1817 116.13 82.3311 126.048 81.8084C128.168 79.7644 130.395 78.0417 132.686 76.6604C134.008 76.9004 135.419 77.2044 136.918 77.5724C137.842 77.8004 138.779 78.0471 139.728 78.3137C137.879 79.7657 136.04 81.5337 134.246 83.5991C138.819 85.6537 141.475 87.6297 144.398 91.1484C140.474 93.8831 138.572 95.2284 134.6 98.4551Z" fill="#6651A5"/>
</g>
</g>
</g>
</g>
<path d="M1.99997 277.117C1.77197 277.352 1.57465 277.616 1.39332 277.893C1.34799 277.96 1.30663 278.027 1.26397 278.097C1.0933 278.383 0.938617 278.684 0.813283 279.013C0.80395 279.04 0.795974 279.069 0.787974 279.097C0.673308 279.408 0.586618 279.741 0.514618 280.088C0.495951 280.177 0.475971 280.264 0.459971 280.355C0.395971 280.735 0.349284 281.131 0.330617 281.549C0.327951 281.608 0.331951 281.671 0.330617 281.729C0.319951 282.111 0.331964 282.512 0.361298 282.927C0.369298 283.032 0.375972 283.137 0.385305 283.245C0.393305 283.325 0.394648 283.399 0.403982 283.479C0.433315 283.737 0.487952 284.02 0.531952 284.292C0.565285 284.497 0.589283 284.696 0.629283 284.909C0.710616 285.321 0.819986 285.752 0.933319 286.188C0.974653 286.351 1.00396 286.503 1.05063 286.668C1.05596 286.687 1.05731 286.701 1.06398 286.72C1.23598 287.324 1.43864 287.953 1.67331 288.603C1.80264 288.961 1.93996 289.321 2.0853 289.685C2.28396 290.183 2.49862 290.688 2.72796 291.199C2.74929 291.248 2.77596 291.297 2.79729 291.349C2.98129 291.752 3.16797 292.159 3.36797 292.568C3.47997 292.793 3.61598 293.025 3.73064 293.252C3.98398 293.748 4.24929 294.249 4.52662 294.752C4.65462 294.988 4.76398 295.217 4.89731 295.456C5.01598 295.663 5.15599 295.876 5.27866 296.085C5.59066 296.616 5.91595 297.152 6.25062 297.688C6.41195 297.949 6.55463 298.207 6.72263 298.469C6.83463 298.643 6.9653 298.82 7.07997 298.995C7.49063 299.623 7.92396 300.253 8.36663 300.887C8.56129 301.167 8.73463 301.445 8.93596 301.725C9.0573 301.896 9.18798 302.065 9.31198 302.235C9.45865 302.436 9.60663 302.637 9.75729 302.84C10.3426 303.632 10.9453 304.424 11.5706 305.215C11.6306 305.288 11.6866 305.363 11.7466 305.439C11.7653 305.464 11.784 305.488 11.8053 305.513C12.5053 306.391 13.232 307.265 13.976 308.136C14.1946 308.392 14.424 308.643 14.644 308.897C15.088 309.407 15.5293 309.92 15.9866 310.425C16.0706 310.521 16.1666 310.612 16.252 310.707C17.2813 311.836 18.3373 312.953 19.4253 314.053C19.6066 314.237 19.7973 314.413 19.9799 314.596C20.9053 315.519 21.8453 316.424 22.8026 317.315C23.1546 317.641 23.5093 317.963 23.864 318.285C24.7346 319.075 25.6146 319.844 26.504 320.601C26.8213 320.871 27.132 321.144 27.4507 321.408C28.6333 322.391 29.8266 323.345 31.0333 324.259C31.0746 324.291 31.116 324.327 31.1586 324.357C32.032 325.017 32.9093 325.653 33.7893 326.269C33.9986 326.417 34.2093 326.553 34.4186 326.696C35.0026 327.099 35.5853 327.504 36.1706 327.884C36.3413 327.996 36.512 328.097 36.6826 328.208C36.8786 328.332 37.0707 328.455 37.2667 328.577C38.1747 329.147 39.0853 329.701 39.9893 330.216C39.9946 330.22 40.0013 330.223 40.0066 330.227C40.5853 330.556 41.1546 330.867 41.716 331.163C41.9 331.26 42.0773 331.347 42.2586 331.44C42.5853 331.608 42.912 331.78 43.2306 331.936C43.2826 331.963 43.3333 331.984 43.3853 332.009C43.5746 332.101 43.76 332.187 43.948 332.275C44.2906 332.436 44.632 332.595 44.9666 332.744C45.1706 332.833 45.3693 332.917 45.5706 333.003C45.7506 333.08 45.9373 333.165 46.116 333.237C46.2453 333.291 46.368 333.333 46.4933 333.384C46.6946 333.464 46.8946 333.541 47.0906 333.616C47.3893 333.728 47.6826 333.835 47.9733 333.935C48.1613 334.001 48.3493 334.065 48.5333 334.127C48.62 334.155 48.7106 334.191 48.7933 334.216C48.9866 334.279 49.1706 334.325 49.36 334.381C49.556 334.44 49.7533 334.501 49.944 334.553C50.22 334.628 50.4866 334.691 50.7533 334.755C50.9293 334.797 51.1053 334.843 51.276 334.88C51.3133 334.887 51.3506 334.899 51.3879 334.905C51.5666 334.943 51.736 334.964 51.9133 334.997C52.1426 335.039 52.376 335.084 52.5986 335.117C52.8026 335.145 52.996 335.163 53.1946 335.185C53.4106 335.208 53.6293 335.236 53.8373 335.251C53.8733 335.252 53.9146 335.259 53.9506 335.263C53.996 335.265 54.0413 335.265 54.0853 335.264C54.1293 335.263 54.1733 335.261 54.22 335.264C54.5466 335.276 54.8653 335.28 55.172 335.269C55.316 335.265 55.4573 335.256 55.5973 335.247C55.88 335.225 56.1546 335.193 56.42 335.149C56.5013 335.136 56.5933 335.135 56.672 335.12C56.7146 335.113 56.7533 335.097 56.7973 335.089C56.9893 335.051 57.1693 335 57.3493 334.949C57.4813 334.912 57.6186 334.88 57.7453 334.836C57.9253 334.773 58.0933 334.699 58.2626 334.624C58.3733 334.575 58.4906 334.532 58.5973 334.476C58.7746 334.385 58.9373 334.279 59.1013 334.172C59.184 334.119 59.2733 334.072 59.3533 334.015C59.5853 333.843 59.8066 333.656 60.0066 333.448L69.5586 323.619C69.3586 323.824 69.1386 324.012 68.9053 324.184C68.8266 324.241 68.7386 324.285 68.6586 324.339C68.4933 324.447 68.3293 324.555 68.1493 324.647C68.044 324.703 67.9266 324.744 67.816 324.793C67.6466 324.869 67.4786 324.944 67.2986 325.004C67.1706 325.049 67.0333 325.081 66.9013 325.12C66.7213 325.169 66.5413 325.22 66.3493 325.259C66.228 325.284 66.0999 325.3 65.9746 325.32C65.7079 325.363 65.4333 325.395 65.1493 325.415C65.0093 325.425 64.868 325.436 64.7253 325.44C64.4186 325.451 64.1 325.447 63.7746 325.433C63.6466 325.427 63.5213 325.428 63.3893 325.42C63.1826 325.405 62.9653 325.379 62.7493 325.355C62.5506 325.333 62.356 325.317 62.1506 325.287C61.928 325.255 61.6946 325.208 61.4653 325.167C61.2533 325.129 61.0453 325.095 60.8293 325.049C60.6586 325.013 60.4813 324.967 60.3066 324.924C60.04 324.861 59.7746 324.799 59.4986 324.723C59.3053 324.671 59.108 324.609 58.912 324.552C58.6413 324.472 58.368 324.389 58.0866 324.297C57.9013 324.236 57.7146 324.171 57.528 324.105C57.236 324.004 56.9413 323.899 56.6426 323.785C56.4466 323.711 56.2479 323.635 56.0493 323.555C55.7439 323.433 55.4333 323.304 55.1213 323.172C54.9226 323.087 54.7226 323.003 54.5186 322.913C54.184 322.765 53.844 322.605 53.5013 322.444C53.3133 322.356 53.128 322.272 52.9386 322.18C52.5666 321.999 52.1853 321.801 51.804 321.605C51.6253 321.513 51.4506 321.429 51.2706 321.335C50.704 321.035 50.128 320.72 49.5413 320.387C48.6373 319.871 47.7253 319.317 46.816 318.744C46.6226 318.624 46.4306 318.503 46.2373 318.38C45.4826 317.896 44.7293 317.388 43.976 316.869C43.7653 316.724 43.552 316.587 43.3413 316.439C42.42 315.793 41.5 315.121 40.5853 314.428C39.3813 313.516 38.1853 312.561 37.0027 311.577C36.6853 311.315 36.3733 311.04 36.0573 310.772C35.168 310.016 34.2866 309.244 33.4173 308.455C33.0626 308.133 32.7066 307.811 32.356 307.484C31.3973 306.592 30.452 305.683 29.524 304.76C29.3453 304.58 29.1586 304.405 28.9813 304.225C27.892 303.125 26.8346 302.005 25.804 300.875C25.2613 300.279 24.7293 299.677 24.204 299.073C23.9787 298.819 23.7493 298.563 23.5266 298.305C22.7613 297.408 22.0173 296.509 21.2986 295.607C21.24 295.533 21.184 295.461 21.1266 295.387C20.5 294.597 19.8973 293.804 19.3106 293.012C19.1613 292.809 19.0106 292.605 18.8626 292.401C18.536 291.955 18.2333 291.508 17.9213 291.061C17.4786 290.425 17.044 289.793 16.632 289.161C16.3453 288.727 16.0746 288.295 15.8053 287.861C15.4693 287.321 15.1426 286.785 14.8293 286.252C14.5693 285.808 14.3213 285.365 14.0786 284.924C13.8026 284.421 13.5373 283.919 13.2826 283.421C12.9586 282.783 12.6346 282.144 12.3506 281.52C12.3293 281.469 12.3026 281.419 12.28 281.367C11.8853 280.485 11.532 279.62 11.2267 278.772C10.9853 278.104 10.78 277.46 10.604 276.839C10.556 276.669 10.5266 276.513 10.484 276.349C10.3706 275.916 10.2626 275.487 10.184 275.08C10.1413 274.867 10.1186 274.665 10.084 274.459C10.0266 274.104 9.97065 273.751 9.93865 273.417C9.92798 273.308 9.92398 273.203 9.91464 273.096C9.88531 272.681 9.87329 272.281 9.88262 271.899C9.88395 271.84 9.88129 271.777 9.88396 271.72C9.90129 271.3 9.94795 270.904 10.0146 270.525C10.0306 270.435 10.048 270.345 10.0666 270.259C10.14 269.912 10.2253 269.579 10.34 269.268C10.3506 269.241 10.3573 269.209 10.368 269.181C10.492 268.855 10.6466 268.552 10.8173 268.265C10.8586 268.197 10.9013 268.131 10.9453 268.064C11.1267 267.785 11.3253 267.521 11.5533 267.285L1.99997 277.117Z" fill="url(#paint11_linear_1_10)"/>
<path d="M11.2267 278.772C16.1893 292.54 33.34 311.171 49.5413 320.387C65.736 329.597 74.848 325.911 69.8866 312.141C64.9213 298.367 47.7626 279.733 31.5693 270.521C25.5386 267.091 20.4933 265.449 16.788 265.449C10.54 265.451 8.10933 270.124 11.2267 278.772Z" fill="url(#paint12_linear_1_10)"/>
<defs>
<linearGradient id="paint0_linear_1_10" x1="144.552" y1="15.4136" x2="128.353" y2="6.08717" gradientUnits="userSpaceOnUse">
<stop stop-color="#9B6FF1"/>
<stop offset="0.00275699" stop-color="#9B6FF1"/>
<stop offset="0.861632" stop-color="#D9C0FF"/>
<stop offset="1" stop-color="#D9C0FF"/>
</linearGradient>
<linearGradient id="paint1_linear_1_10" x1="125.152" y1="3.01988" x2="133.504" y2="22.7095" gradientUnits="userSpaceOnUse">
<stop stop-color="#C3AAF7"/>
<stop offset="0.123203" stop-color="#B494F5"/>
<stop offset="0.442288" stop-color="#4D3B8B"/>
<stop offset="0.582037" stop-color="#4D3B8B"/>
<stop offset="0.686689" stop-color="#4D3B8B"/>
<stop offset="1" stop-color="#A57EF3"/>
</linearGradient>
<linearGradient id="paint2_linear_1_10" x1="146.391" y1="41.7211" x2="130.192" y2="32.3946" gradientUnits="userSpaceOnUse">
<stop stop-color="#9B6FF1"/>
<stop offset="0.00275699" stop-color="#9B6FF1"/>
<stop offset="0.861632" stop-color="#D9C0FF"/>
<stop offset="1" stop-color="#D9C0FF"/>
</linearGradient>
<linearGradient id="paint3_linear_1_10" x1="126.991" y1="29.3273" x2="135.343" y2="49.0169" gradientUnits="userSpaceOnUse">
<stop stop-color="#C3AAF7"/>
<stop offset="0.123203" stop-color="#B494F5"/>
<stop offset="0.442288" stop-color="#4D3B8B"/>
<stop offset="0.582037" stop-color="#4D3B8B"/>
<stop offset="0.686689" stop-color="#4D3B8B"/>
<stop offset="1" stop-color="#A57EF3"/>
</linearGradient>
<radialGradient id="paint4_radial_1_10" cx="0" cy="0" r="1" gradientUnits="userSpaceOnUse" gradientTransform="translate(41.8565 197.804) rotate(55.2382) scale(24.7179)">
<stop stop-color="#BBE41E"/>
<stop offset="1" stop-color="#BBE41E"/>
</radialGradient>
<radialGradient id="paint5_radial_1_10" cx="0" cy="0" r="1" gradientUnits="userSpaceOnUse" gradientTransform="translate(245.719 245.017) rotate(44.0229) scale(118.719 118.719)">
<stop stop-color="#AC6AFF"/>
<stop offset="0.437758" stop-color="#AC6AFF"/>
<stop offset="0.804302" stop-color="#AC6AFF"/>
<stop offset="0.993986" stop-color="white"/>
<stop offset="1" stop-color="white"/>
</radialGradient>
<linearGradient id="paint6_linear_1_10" x1="163.39" y1="234.676" x2="217.679" y2="-0.432929" gradientUnits="userSpaceOnUse">
<stop stop-color="#9B6FF1"/>
<stop offset="0.266389" stop-color="#9B6FF1"/>
<stop offset="1" stop-color="#D9C0FF"/>
</linearGradient>
<linearGradient id="paint7_linear_1_10" x1="103.075" y1="278.376" x2="316.501" y2="46.9451" gradientUnits="userSpaceOnUse">
<stop stop-color="#B08BF6"/>
<stop offset="0.0845325" stop-color="#482B78"/>
<stop offset="0.202047" stop-color="#482B78"/>
<stop offset="0.252311" stop-color="#482B78"/>
<stop offset="0.302341" stop-color="#7A54C0"/>
<stop offset="0.714221" stop-color="#5A3C99"/>
<stop offset="0.743988" stop-color="#5A3C99"/>
<stop offset="0.904463" stop-color="#5A3C99"/>
<stop offset="0.991485" stop-color="#B08BF6"/>
<stop offset="1" stop-color="#B08BF6"/>
</linearGradient>
<linearGradient id="paint8_linear_1_10" x1="88.4931" y1="248.213" x2="298.597" y2="2.65101" gradientUnits="userSpaceOnUse">
<stop stop-color="white"/>
<stop offset="0.655" stop-color="white"/>
<stop offset="1" stop-color="white"/>
</linearGradient>
<linearGradient id="paint9_linear_1_10" x1="86.5172" y1="133.719" x2="284.761" y2="133.719" gradientUnits="userSpaceOnUse">
<stop stop-color="#E3A6FF"/>
<stop offset="0.5" stop-color="#7C62B2"/>
<stop offset="1" stop-color="#AC6AFF"/>
</linearGradient>
<radialGradient id="paint10_radial_1_10" cx="0" cy="0" r="1" gradientUnits="userSpaceOnUse" gradientTransform="translate(141.37 130.564) rotate(44.0229) scale(57.8725)">
<stop stop-color="#E2CFFF"/>
<stop offset="0.0431037" stop-color="#E2CFFF"/>
<stop offset="0.601297" stop-color="#D7BDFF"/>
<stop offset="0.853025" stop-color="#D7BDFF"/>
<stop offset="0.993986" stop-color="white"/>
<stop offset="1" stop-color="white"/>
</radialGradient>
<linearGradient id="paint11_linear_1_10" x1="0.436351" y1="278.425" x2="63.1224" y2="330.778" gradientUnits="userSpaceOnUse">
<stop stop-color="#C7A2FF"/>
<stop offset="0.0484644" stop-color="#C7A2FF"/>
<stop offset="0.0881208" stop-color="#A581E7"/>
<stop offset="0.384847" stop-color="#432671"/>
<stop offset="0.57055" stop-color="#432671"/>
<stop offset="0.8728" stop-color="#432671"/>
<stop offset="1" stop-color="#9B73E4"/>
</linearGradient>
<linearGradient id="paint12_linear_1_10" x1="31.0155" y1="310.986" x2="48.9214" y2="281.832" gradientUnits="userSpaceOnUse">
<stop stop-color="#9B6FF1"/>
<stop offset="0.00319973" stop-color="#9B6FF1"/>
<stop offset="1" stop-color="#D9C0FF"/>
</linearGradient>
</defs>
</svg>
