<svg width="220" height="140" viewBox="0 0 220 140" fill="none" xmlns="http://www.w3.org/2000/svg">
<path fill-rule="evenodd" clip-rule="evenodd" d="M109.761 126.923C127.757 114.306 139.522 93.4078 139.522 69.7612C139.522 46.1146 127.757 25.2159 109.761 12.5995C121.087 4.65965 134.88 0 149.761 0C188.289 0 219.522 31.2332 219.522 69.7612C219.522 108.289 188.289 139.522 149.761 139.522C134.88 139.522 121.087 134.863 109.761 126.923ZM109.761 126.923C98.4358 134.863 84.6427 139.522 69.7612 139.522C31.2332 139.522 0 108.289 0 69.7612C0 31.2332 31.2332 0 69.7612 0C84.6427 0 98.4358 4.65965 109.761 12.5995C91.7652 25.2159 80 46.1146 80 69.7612C80 93.4078 91.7652 114.306 109.761 126.923Z" fill="url(#paint0_linear_25_25238)"/>
<defs>
<linearGradient id="paint0_linear_25_25238" x1="92.2612" y1="0" x2="92.2612" y2="165.522" gradientUnits="userSpaceOnUse">
<stop stop-color="#06DEFB"/>
<stop offset="0.33" stop-color="#023BFB"/>
<stop offset="0.645186" stop-color="#444EFB"/>
<stop offset="0.975" stop-color="#8A61FA"/>
</linearGradient>
</defs>
</svg>
