<svg width="632" height="181" viewBox="0 0 632 181" fill="none" xmlns="http://www.w3.org/2000/svg">
<mask id="path-1-outside-1_21_2" maskUnits="userSpaceOnUse" x="1" y="20" width="633" height="165" fill="black">
<rect fill="white" x="1" y="20" width="633" height="165"/>
<path d="M49.65 83.6C56.85 85.2 62.5 86.65 66.6 87.95C70.8 89.25 74.85 91.05 78.75 93.35C82.65 95.55 85.4 98.3 87 101.6C88.7 104.9 89.55 108.95 89.55 113.75C89.55 123.85 85.85 131.55 78.45 136.85C71.05 142.05 61.95 144.65 51.15 144.65C37.95 144.65 27.65 141.6 20.25 135.5C12.95 129.4 8.4 121.4 6.6 111.5H19.2C22.7 125.8 33.25 132.95 50.85 132.95C59.05 132.95 65.45 131.35 70.05 128.15C74.65 124.85 76.95 120.2 76.95 114.2C76.95 108.9 74.85 105.15 70.65 102.95C66.45 100.75 58.5 98.35 46.8 95.75C40.5 94.35 35.35 93 31.35 91.7C27.45 90.4 23.65 88.7 19.95 86.6C16.35 84.4 13.7 81.7 12 78.5C10.3 75.2 9.45 71.3 9.45 66.8C9.45 57.3 13.05 49.85 20.25 44.45C27.55 39.05 36.5 36.35 47.1 36.35C58.8 36.35 68.05 38.9 74.85 44C81.65 49.1 86.05 55.85 88.05 64.25H75.45C71.25 53.45 61.85 48.05 47.25 48.05C39.45 48.05 33.25 49.75 28.65 53.15C24.15 56.45 21.9 61 21.9 66.8C21.9 71.1 23.8 74.35 27.6 76.55C31.5 78.75 38.85 81.1 49.65 83.6ZM152.194 58.85C163.394 58.85 172.594 62.9 179.794 71C187.094 79 190.744 89.25 190.744 101.75C190.744 114.25 187.094 124.55 179.794 132.65C172.494 140.65 163.244 144.65 152.044 144.65C145.044 144.65 138.794 143.05 133.294 139.85C127.894 136.55 123.594 132.05 120.394 126.35V180.5H107.944V60.5H120.394V77.45C123.594 71.65 127.944 67.1 133.444 63.8C138.944 60.5 145.194 58.85 152.194 58.85ZM149.794 132.8C158.094 132.8 164.894 129.9 170.194 124.1C175.494 118.3 178.144 110.85 178.144 101.75C178.144 92.75 175.494 85.35 170.194 79.55C164.894 73.65 158.094 70.7 149.794 70.7C141.294 70.7 134.244 73.65 128.644 79.55C123.044 85.35 120.244 92.75 120.244 101.75C120.244 110.75 123.044 118.2 128.644 124.1C134.244 129.9 141.294 132.8 149.794 132.8ZM210.036 143V27.5H222.486V143H210.036ZM244.303 26.6C246.003 25 248.103 24.2 250.603 24.2C253.103 24.2 255.153 25 256.753 26.6C258.453 28.2 259.303 30.15 259.303 32.45C259.303 34.85 258.453 36.85 256.753 38.45C255.153 40.05 253.103 40.85 250.603 40.85C248.103 40.85 246.003 40.05 244.303 38.45C242.703 36.85 241.903 34.85 241.903 32.45C241.903 30.15 242.703 28.2 244.303 26.6ZM244.303 143V60.5H256.753V143H244.303ZM337.223 129.05L339.473 139.4C332.873 142.9 325.423 144.65 317.123 144.65C308.023 144.65 300.823 141.8 295.523 136.1C290.223 130.3 287.573 122.1 287.573 111.5V72.2H271.673V60.5H287.573V40.7L300.023 38V60.5H337.073V72.2H300.023V110.9C300.023 125.7 306.423 133.1 319.223 133.1C323.823 133.1 329.823 131.75 337.223 129.05ZM400.467 38C411.867 38 420.767 41.15 427.167 47.45C433.567 53.65 436.767 61.7 436.767 71.6C436.767 81.6 433.517 89.8 427.017 96.2C420.617 102.6 411.767 105.8 400.467 105.8H370.767V143H358.317V38H400.467ZM400.017 93.95C407.917 93.95 413.917 91.85 418.017 87.65C422.117 83.45 424.167 78.15 424.167 71.75C424.167 65.35 422.117 60.1 418.017 56C413.917 51.9 407.917 49.85 400.017 49.85H370.767V93.95H400.017ZM519.654 60.5H532.104V143H519.654V126.35C516.354 132.05 511.954 136.55 506.454 139.85C501.054 143.05 494.854 144.65 487.854 144.65C476.654 144.65 467.404 140.65 460.104 132.65C452.904 124.55 449.304 114.25 449.304 101.75C449.304 89.25 452.904 79 460.104 71C467.404 62.9 476.654 58.85 487.854 58.85C494.854 58.85 501.104 60.5 506.604 63.8C512.104 67.1 516.454 71.65 519.654 77.45V60.5ZM490.254 132.8C498.754 132.8 505.804 129.9 511.404 124.1C517.004 118.2 519.804 110.75 519.804 101.75C519.804 92.75 517.004 85.35 511.404 79.55C505.804 73.65 498.754 70.7 490.254 70.7C481.854 70.7 475.004 73.65 469.704 79.55C464.504 85.35 461.904 92.75 461.904 101.75C461.904 110.85 464.554 118.3 469.854 124.1C475.154 129.9 481.954 132.8 490.254 132.8ZM614.264 60.5H627.614L571.964 180.5H558.614L580.514 132.95L547.064 60.5H560.414L587.114 119.6L614.264 60.5Z"/>
</mask>
<path d="M49.65 83.6C56.85 85.2 62.5 86.65 66.6 87.95C70.8 89.25 74.85 91.05 78.75 93.35C82.65 95.55 85.4 98.3 87 101.6C88.7 104.9 89.55 108.95 89.55 113.75C89.55 123.85 85.85 131.55 78.45 136.85C71.05 142.05 61.95 144.65 51.15 144.65C37.95 144.65 27.65 141.6 20.25 135.5C12.95 129.4 8.4 121.4 6.6 111.5H19.2C22.7 125.8 33.25 132.95 50.85 132.95C59.05 132.95 65.45 131.35 70.05 128.15C74.65 124.85 76.95 120.2 76.95 114.2C76.95 108.9 74.85 105.15 70.65 102.95C66.45 100.75 58.5 98.35 46.8 95.75C40.5 94.35 35.35 93 31.35 91.7C27.45 90.4 23.65 88.7 19.95 86.6C16.35 84.4 13.7 81.7 12 78.5C10.3 75.2 9.45 71.3 9.45 66.8C9.45 57.3 13.05 49.85 20.25 44.45C27.55 39.05 36.5 36.35 47.1 36.35C58.8 36.35 68.05 38.9 74.85 44C81.65 49.1 86.05 55.85 88.05 64.25H75.45C71.25 53.45 61.85 48.05 47.25 48.05C39.45 48.05 33.25 49.75 28.65 53.15C24.15 56.45 21.9 61 21.9 66.8C21.9 71.1 23.8 74.35 27.6 76.55C31.5 78.75 38.85 81.1 49.65 83.6ZM152.194 58.85C163.394 58.85 172.594 62.9 179.794 71C187.094 79 190.744 89.25 190.744 101.75C190.744 114.25 187.094 124.55 179.794 132.65C172.494 140.65 163.244 144.65 152.044 144.65C145.044 144.65 138.794 143.05 133.294 139.85C127.894 136.55 123.594 132.05 120.394 126.35V180.5H107.944V60.5H120.394V77.45C123.594 71.65 127.944 67.1 133.444 63.8C138.944 60.5 145.194 58.85 152.194 58.85ZM149.794 132.8C158.094 132.8 164.894 129.9 170.194 124.1C175.494 118.3 178.144 110.85 178.144 101.75C178.144 92.75 175.494 85.35 170.194 79.55C164.894 73.65 158.094 70.7 149.794 70.7C141.294 70.7 134.244 73.65 128.644 79.55C123.044 85.35 120.244 92.75 120.244 101.75C120.244 110.75 123.044 118.2 128.644 124.1C134.244 129.9 141.294 132.8 149.794 132.8ZM210.036 143V27.5H222.486V143H210.036ZM244.303 26.6C246.003 25 248.103 24.2 250.603 24.2C253.103 24.2 255.153 25 256.753 26.6C258.453 28.2 259.303 30.15 259.303 32.45C259.303 34.85 258.453 36.85 256.753 38.45C255.153 40.05 253.103 40.85 250.603 40.85C248.103 40.85 246.003 40.05 244.303 38.45C242.703 36.85 241.903 34.85 241.903 32.45C241.903 30.15 242.703 28.2 244.303 26.6ZM244.303 143V60.5H256.753V143H244.303ZM337.223 129.05L339.473 139.4C332.873 142.9 325.423 144.65 317.123 144.65C308.023 144.65 300.823 141.8 295.523 136.1C290.223 130.3 287.573 122.1 287.573 111.5V72.2H271.673V60.5H287.573V40.7L300.023 38V60.5H337.073V72.2H300.023V110.9C300.023 125.7 306.423 133.1 319.223 133.1C323.823 133.1 329.823 131.75 337.223 129.05ZM400.467 38C411.867 38 420.767 41.15 427.167 47.45C433.567 53.65 436.767 61.7 436.767 71.6C436.767 81.6 433.517 89.8 427.017 96.2C420.617 102.6 411.767 105.8 400.467 105.8H370.767V143H358.317V38H400.467ZM400.017 93.95C407.917 93.95 413.917 91.85 418.017 87.65C422.117 83.45 424.167 78.15 424.167 71.75C424.167 65.35 422.117 60.1 418.017 56C413.917 51.9 407.917 49.85 400.017 49.85H370.767V93.95H400.017ZM519.654 60.5H532.104V143H519.654V126.35C516.354 132.05 511.954 136.55 506.454 139.85C501.054 143.05 494.854 144.65 487.854 144.65C476.654 144.65 467.404 140.65 460.104 132.65C452.904 124.55 449.304 114.25 449.304 101.75C449.304 89.25 452.904 79 460.104 71C467.404 62.9 476.654 58.85 487.854 58.85C494.854 58.85 501.104 60.5 506.604 63.8C512.104 67.1 516.454 71.65 519.654 77.45V60.5ZM490.254 132.8C498.754 132.8 505.804 129.9 511.404 124.1C517.004 118.2 519.804 110.75 519.804 101.75C519.804 92.75 517.004 85.35 511.404 79.55C505.804 73.65 498.754 70.7 490.254 70.7C481.854 70.7 475.004 73.65 469.704 79.55C464.504 85.35 461.904 92.75 461.904 101.75C461.904 110.85 464.554 118.3 469.854 124.1C475.154 129.9 481.954 132.8 490.254 132.8ZM614.264 60.5H627.614L571.964 180.5H558.614L580.514 132.95L547.064 60.5H560.414L587.114 119.6L614.264 60.5Z" fill="white"/>
<path d="M49.65 83.6L48.7479 87.497L48.7651 87.5009L48.7823 87.5047L49.65 83.6ZM66.6 87.95L65.391 91.7629L65.4041 91.7671L65.4173 91.7711L66.6 87.95ZM78.75 93.35L76.7181 96.7955L76.7512 96.815L76.7847 96.8339L78.75 93.35ZM87 101.6L83.4008 103.345L83.4219 103.389L83.4441 103.432L87 101.6ZM78.45 136.85L80.7498 140.123L80.7645 140.112L80.7791 140.102L78.45 136.85ZM20.25 135.5L17.6851 138.569L17.6954 138.578L17.7057 138.587L20.25 135.5ZM6.6 111.5V107.5H1.80715L2.66452 112.216L6.6 111.5ZM19.2 111.5L23.0853 110.549L22.339 107.5H19.2V111.5ZM70.05 128.15L72.3343 131.434L72.3581 131.417L72.3816 131.4L70.05 128.15ZM70.65 102.95L72.506 99.4067L72.506 99.4067L70.65 102.95ZM46.8 95.75L47.6677 91.8452L47.6677 91.8452L46.8 95.75ZM31.35 91.7L30.0851 95.4947L30.0994 95.4995L30.1137 95.5041L31.35 91.7ZM19.95 86.6L17.8642 90.0131L17.9194 90.0468L17.9756 90.0787L19.95 86.6ZM12 78.5L8.4441 80.3318L8.45568 80.3543L8.46754 80.3766L12 78.5ZM20.25 44.45L17.8712 41.2342L17.8606 41.2421L17.85 41.25L20.25 44.45ZM74.85 44L72.45 47.2L72.45 47.2L74.85 44ZM88.05 64.25V68.25H93.1142L91.9412 63.3235L88.05 64.25ZM75.45 64.25L71.722 65.6998L72.7137 68.25H75.45V64.25ZM28.65 53.15L31.0155 56.3756L31.0215 56.3712L31.0276 56.3667L28.65 53.15ZM27.6 76.55L25.5959 80.0117L25.6152 80.0229L25.6347 80.0339L27.6 76.55ZM48.7823 87.5047C55.9359 89.0944 61.4548 90.5149 65.391 91.7629L67.809 84.1371C63.5452 82.7851 57.7641 81.3056 50.5177 79.6952L48.7823 87.5047ZM65.4173 91.7711C69.3118 92.9766 73.0776 94.6485 76.7181 96.7955L80.7819 89.9045C76.6224 87.4515 72.2882 85.5234 67.7827 84.1289L65.4173 91.7711ZM76.7847 96.8339C80.1346 98.7236 82.2278 100.926 83.4008 103.345L90.5993 99.8549C88.5722 95.6741 85.1654 92.3764 80.7153 89.8661L76.7847 96.8339ZM83.4441 103.432C84.7794 106.024 85.55 109.406 85.55 113.75H93.55C93.55 108.494 92.6206 103.776 90.5559 99.7682L83.4441 103.432ZM85.55 113.75C85.55 122.724 82.3454 129.14 76.1209 133.598L80.7791 140.102C89.3546 133.96 93.55 124.976 93.55 113.75H85.55ZM76.1502 133.577C69.5461 138.218 61.2902 140.65 51.15 140.65V148.65C62.6098 148.65 72.554 145.882 80.7498 140.123L76.1502 133.577ZM51.15 140.65C38.5312 140.65 29.2493 137.734 22.7943 132.413L17.7057 138.587C26.0507 145.466 37.3688 148.65 51.15 148.65V140.65ZM22.8149 132.431C16.2766 126.967 12.1785 119.821 10.5355 110.784L2.66452 112.216C4.62149 122.979 9.62335 131.833 17.6851 138.569L22.8149 132.431ZM6.6 115.5H19.2V107.5H6.6V115.5ZM15.3147 112.451C17.2614 120.405 21.2714 126.682 27.4934 130.899C33.6392 135.064 41.5455 136.95 50.85 136.95V128.95C42.5545 128.95 36.3859 127.261 31.9816 124.276C27.6536 121.343 24.6386 116.895 23.0853 110.549L15.3147 112.451ZM50.85 136.95C59.5066 136.95 66.819 135.27 72.3343 131.434L67.7657 124.866C64.081 127.43 58.5934 128.95 50.85 128.95V136.95ZM72.3816 131.4C78.1005 127.297 80.95 121.398 80.95 114.2H72.95C72.95 119.002 71.1995 122.403 67.7184 124.9L72.3816 131.4ZM80.95 114.2C80.95 111.024 80.3189 108.054 78.865 105.458C77.3973 102.837 75.2197 100.828 72.506 99.4067L68.794 106.493C70.2803 107.272 71.2527 108.238 71.885 109.367C72.5311 110.521 72.95 112.076 72.95 114.2H80.95ZM72.506 99.4067C67.7797 96.931 59.3451 94.4402 47.6677 91.8452L45.9323 99.6547C57.6549 102.26 65.1203 104.569 68.794 106.493L72.506 99.4067ZM47.6677 91.8452C41.434 90.46 36.4193 89.1416 32.5863 87.8959L30.1137 95.5041C34.2807 96.8584 39.566 98.24 45.9323 99.6547L47.6677 91.8452ZM32.6149 87.9053C28.9695 86.6901 25.4066 85.0976 21.9244 83.1213L17.9756 90.0787C21.8934 92.3024 25.9305 94.1099 30.0851 95.4947L32.6149 87.9053ZM22.0358 83.1869C18.9452 81.2982 16.8447 79.0934 15.5325 76.6234L8.46754 80.3766C10.5553 84.3066 13.7548 87.5018 17.8642 90.0131L22.0358 83.1869ZM15.5559 76.6682C14.2034 74.0427 13.45 70.7965 13.45 66.8H5.45C5.45 71.8035 6.39663 76.3573 8.4441 80.3318L15.5559 76.6682ZM13.45 66.8C13.45 58.4774 16.5208 52.2469 22.65 47.65L17.85 41.25C9.57919 47.4531 5.45 56.1226 5.45 66.8H13.45ZM22.6288 47.6658C29.1298 42.8568 37.208 40.35 47.1 40.35V32.35C35.792 32.35 25.9702 35.2432 17.8712 41.2342L22.6288 47.6658ZM47.1 40.35C58.2544 40.35 66.5608 42.7831 72.45 47.2L77.25 40.8C69.5392 35.0169 59.3456 32.35 47.1 32.35V40.35ZM72.45 47.2C78.4899 51.7299 82.3714 57.6694 84.1588 65.1765L91.9412 63.3235C89.7286 54.0305 84.8101 46.4701 77.25 40.8L72.45 47.2ZM88.05 60.25H75.45V68.25H88.05V60.25ZM79.178 62.8002C76.7715 56.6119 72.7912 51.8191 67.2425 48.6316C61.7616 45.483 55.0157 44.05 47.25 44.05V52.05C54.0843 52.05 59.3384 53.317 63.2575 55.5684C67.1088 57.7809 69.9285 61.0881 71.722 65.6998L79.178 62.8002ZM47.25 44.05C38.9002 44.05 31.7717 45.8686 26.2724 49.9333L31.0276 56.3667C34.7283 53.6314 39.9998 52.05 47.25 52.05V44.05ZM26.2845 49.9244C20.7103 54.0121 17.9 59.7849 17.9 66.8H25.9C25.9 62.2151 27.5897 58.8879 31.0155 56.3756L26.2845 49.9244ZM17.9 66.8C17.9 72.5643 20.5929 77.1152 25.5959 80.0117L29.6041 73.0883C27.0071 71.5847 25.9 69.6357 25.9 66.8H17.9ZM25.6347 80.0339C30.0933 82.549 37.964 85.0007 48.7479 87.497L50.5521 79.703C39.736 77.1993 32.9067 74.951 29.5653 73.0661L25.6347 80.0339ZM179.794 71L176.804 73.6575L176.821 73.6769L176.839 73.6962L179.794 71ZM179.794 132.65L182.748 135.346L182.757 135.337L182.765 135.328L179.794 132.65ZM133.294 139.85L131.208 143.263L131.245 143.286L131.282 143.307L133.294 139.85ZM120.394 126.35L123.882 124.392L116.394 111.054V126.35H120.394ZM120.394 180.5V184.5H124.394V180.5H120.394ZM107.944 180.5H103.944V184.5H107.944V180.5ZM107.944 60.5V56.5H103.944V60.5H107.944ZM120.394 60.5H124.394V56.5H120.394V60.5ZM120.394 77.45H116.394L123.896 79.3823L120.394 77.45ZM133.444 63.8L135.502 67.23L135.502 67.23L133.444 63.8ZM170.194 124.1L167.241 121.402L167.241 121.402L170.194 124.1ZM170.194 79.55L167.218 82.2231L167.229 82.2357L167.241 82.2483L170.194 79.55ZM128.644 79.55L131.521 82.3284L131.533 82.3161L131.545 82.3037L128.644 79.55ZM128.644 124.1L125.743 126.854L125.754 126.866L125.766 126.878L128.644 124.1ZM152.194 62.85C162.295 62.85 170.392 66.4434 176.804 73.6575L182.783 68.3425C174.796 59.3566 164.493 54.85 152.194 54.85V62.85ZM176.839 73.6962C183.363 80.8462 186.744 90.0833 186.744 101.75H194.744C194.744 88.4167 190.824 77.1537 182.748 68.3038L176.839 73.6962ZM186.744 101.75C186.744 113.416 183.363 122.714 176.822 129.972L182.765 135.328C190.824 126.386 194.744 115.084 194.744 101.75H186.744ZM176.839 129.954C170.326 137.092 162.163 140.65 152.044 140.65V148.65C164.325 148.65 174.662 144.208 182.748 135.346L176.839 129.954ZM152.044 140.65C145.678 140.65 140.135 139.202 135.305 136.393L131.282 143.307C137.453 146.898 144.41 148.65 152.044 148.65V140.65ZM135.38 136.437C130.583 133.506 126.758 129.515 123.882 124.392L116.906 128.308C120.429 134.585 125.204 139.594 131.208 143.263L135.38 136.437ZM116.394 126.35V180.5H124.394V126.35H116.394ZM120.394 176.5H107.944V184.5H120.394V176.5ZM111.944 180.5V60.5H103.944V180.5H111.944ZM107.944 64.5H120.394V56.5H107.944V64.5ZM116.394 60.5V77.45H124.394V60.5H116.394ZM123.896 79.3823C126.767 74.179 130.627 70.1547 135.502 67.23L131.386 60.37C125.26 64.0453 120.421 69.121 116.891 75.5177L123.896 79.3823ZM135.502 67.23C140.324 64.3367 145.85 62.85 152.194 62.85V54.85C144.537 54.85 137.564 56.6633 131.386 60.37L135.502 67.23ZM149.794 136.8C159.146 136.8 167.042 133.479 173.147 126.798L167.241 121.402C162.746 126.321 157.042 128.8 149.794 128.8V136.8ZM173.147 126.798C179.226 120.145 182.144 111.68 182.144 101.75H174.144C174.144 110.02 171.762 116.455 167.241 121.402L173.147 126.798ZM182.144 101.75C182.144 91.907 179.218 83.4962 173.147 76.8517L167.241 82.2483C171.769 87.2038 174.144 93.593 174.144 101.75H182.144ZM173.169 76.8769C167.072 70.0888 159.169 66.7 149.794 66.7V74.7C157.018 74.7 162.716 77.2111 167.218 82.2231L173.169 76.8769ZM149.794 66.7C140.252 66.7 132.135 70.0613 125.743 76.7963L131.545 82.3037C136.352 77.2387 142.335 74.7 149.794 74.7V66.7ZM125.766 76.7716C119.36 83.4067 116.244 91.8446 116.244 101.75H124.244C124.244 93.6554 126.728 87.2933 131.521 82.3284L125.766 76.7716ZM116.244 101.75C116.244 111.656 119.359 120.129 125.743 126.854L131.545 121.346C126.728 116.271 124.244 109.844 124.244 101.75H116.244ZM125.766 126.878C132.164 133.505 140.274 136.8 149.794 136.8V128.8C142.313 128.8 136.323 126.295 131.521 121.322L125.766 126.878ZM210.036 143H206.036V147H210.036V143ZM210.036 27.5V23.5H206.036V27.5H210.036ZM222.486 27.5H226.486V23.5H222.486V27.5ZM222.486 143V147H226.486V143H222.486ZM214.036 143V27.5H206.036V143H214.036ZM210.036 31.5H222.486V23.5H210.036V31.5ZM218.486 27.5V143H226.486V27.5H218.486ZM222.486 139H210.036V147H222.486V139ZM244.303 26.6L241.562 23.6872L241.518 23.7287L241.475 23.7716L244.303 26.6ZM256.753 26.6L253.925 29.4284L253.968 29.4713L254.012 29.5128L256.753 26.6ZM256.753 38.45L254.012 35.5372L253.968 35.5787L253.925 35.6216L256.753 38.45ZM244.303 38.45L241.475 41.2784L241.518 41.3213L241.562 41.3628L244.303 38.45ZM244.303 143H240.303V147H244.303V143ZM244.303 60.5V56.5H240.303V60.5H244.303ZM256.753 60.5H260.753V56.5H256.753V60.5ZM256.753 143V147H260.753V143H256.753ZM247.045 29.5128C247.947 28.6636 249.043 28.2 250.603 28.2V20.2C247.163 20.2 244.059 21.3364 241.562 23.6872L247.045 29.5128ZM250.603 28.2C252.164 28.2 253.157 28.6607 253.925 29.4284L259.582 23.7716C257.149 21.3393 254.042 20.2 250.603 20.2V28.2ZM254.012 29.5128C254.922 30.3698 255.303 31.2715 255.303 32.45H263.303C263.303 29.0284 261.984 26.0302 259.495 23.6872L254.012 29.5128ZM255.303 32.45C255.303 33.782 254.883 34.7167 254.012 35.5372L259.495 41.3628C262.023 38.9833 263.303 35.918 263.303 32.45H255.303ZM253.925 35.6216C253.157 36.3893 252.164 36.85 250.603 36.85V44.85C254.042 44.85 257.149 43.7107 259.582 41.2784L253.925 35.6216ZM250.603 36.85C249.043 36.85 247.947 36.3864 247.045 35.5372L241.562 41.3628C244.059 43.7136 247.163 44.85 250.603 44.85V36.85ZM247.132 35.6216C246.331 34.8207 245.903 33.8605 245.903 32.45H237.903C237.903 35.8394 239.076 38.8792 241.475 41.2784L247.132 35.6216ZM245.903 32.45C245.903 31.1913 246.295 30.2645 247.132 29.4284L241.475 23.7716C239.111 26.1355 237.903 29.1087 237.903 32.45H245.903ZM248.303 143V60.5H240.303V143H248.303ZM244.303 64.5H256.753V56.5H244.303V64.5ZM252.753 60.5V143H260.753V60.5H252.753ZM256.753 139H244.303V147H256.753V139ZM337.223 129.05L341.132 128.2L340.158 123.721L335.852 125.292L337.223 129.05ZM339.473 139.4L341.347 142.934L344.026 141.513L343.382 138.55L339.473 139.4ZM295.523 136.1L292.571 138.798L292.582 138.811L292.594 138.824L295.523 136.1ZM287.573 72.2H291.573V68.2H287.573V72.2ZM271.673 72.2H267.673V76.2H271.673V72.2ZM271.673 60.5V56.5H267.673V60.5H271.673ZM287.573 60.5V64.5H291.573V60.5H287.573ZM287.573 40.7L286.726 36.7909L283.573 37.4745V40.7H287.573ZM300.023 38H304.023V33.0395L299.176 34.0909L300.023 38ZM300.023 60.5H296.023V64.5H300.023V60.5ZM337.073 60.5H341.073V56.5H337.073V60.5ZM337.073 72.2V76.2H341.073V72.2H337.073ZM300.023 72.2V68.2H296.023V72.2H300.023ZM333.315 129.9L335.565 140.25L343.382 138.55L341.132 128.2L333.315 129.9ZM337.599 135.866C331.638 139.027 324.844 140.65 317.123 140.65V148.65C326.003 148.65 334.108 146.773 341.347 142.934L337.599 135.866ZM317.123 140.65C308.93 140.65 302.867 138.123 298.453 133.376L292.594 138.824C298.78 145.477 307.117 148.65 317.123 148.65V140.65ZM298.476 133.402C294.056 128.564 291.573 121.455 291.573 111.5H283.573C283.573 122.745 286.391 132.036 292.571 138.798L298.476 133.402ZM291.573 111.5V72.2H283.573V111.5H291.573ZM287.573 68.2H271.673V76.2H287.573V68.2ZM275.673 72.2V60.5H267.673V72.2H275.673ZM271.673 64.5H287.573V56.5H271.673V64.5ZM291.573 60.5V40.7H283.573V60.5H291.573ZM288.421 44.6091L300.871 41.9091L299.176 34.0909L286.726 36.7909L288.421 44.6091ZM296.023 38V60.5H304.023V38H296.023ZM300.023 64.5H337.073V56.5H300.023V64.5ZM333.073 60.5V72.2H341.073V60.5H333.073ZM337.073 68.2H300.023V76.2H337.073V68.2ZM296.023 72.2V110.9H304.023V72.2H296.023ZM296.023 110.9C296.023 118.786 297.716 125.447 301.798 130.167C305.976 134.997 312.043 137.1 319.223 137.1V129.1C313.604 129.1 310.071 127.503 307.849 124.933C305.531 122.253 304.023 117.814 304.023 110.9H296.023ZM319.223 137.1C324.509 137.1 331.022 135.571 338.594 132.808L335.852 125.292C328.625 127.929 323.138 129.1 319.223 129.1V137.1ZM427.167 47.45L424.361 50.3006L424.373 50.3118L424.384 50.323L427.167 47.45ZM427.017 96.2L424.211 93.3497L424.2 93.3606L424.189 93.3716L427.017 96.2ZM370.767 105.8V101.8H366.767V105.8H370.767ZM370.767 143V147H374.767V143H370.767ZM358.317 143H354.317V147H358.317V143ZM358.317 38V34H354.317V38H358.317ZM418.017 87.65L420.879 90.4441L420.879 90.4441L418.017 87.65ZM418.017 56L420.846 53.1716L420.846 53.1716L418.017 56ZM370.767 49.85V45.85H366.767V49.85H370.767ZM370.767 93.95H366.767V97.95H370.767V93.95ZM400.467 42C411.114 42 418.897 44.9219 424.361 50.3006L429.973 44.5994C422.637 37.3781 412.621 34 400.467 34V42ZM424.384 50.323C429.916 55.6821 432.767 62.6505 432.767 71.6H440.767C440.767 60.7495 437.218 51.6179 429.95 44.577L424.384 50.323ZM432.767 71.6C432.767 80.6421 429.87 87.7778 424.211 93.3497L429.824 99.0503C437.165 91.8222 440.767 82.5579 440.767 71.6H432.767ZM424.189 93.3716C418.715 98.8451 410.985 101.8 400.467 101.8V109.8C412.55 109.8 422.519 106.355 429.846 99.0284L424.189 93.3716ZM400.467 101.8H370.767V109.8H400.467V101.8ZM366.767 105.8V143H374.767V105.8H366.767ZM370.767 139H358.317V147H370.767V139ZM362.317 143V38H354.317V143H362.317ZM358.317 42H400.467V34H358.317V42ZM400.017 97.95C408.609 97.95 415.795 95.6531 420.879 90.4441L415.155 84.8559C412.04 88.0469 407.225 89.95 400.017 89.95V97.95ZM420.879 90.4441C425.778 85.426 428.167 79.0906 428.167 71.75H420.167C420.167 77.2094 418.456 81.474 415.155 84.8559L420.879 90.4441ZM428.167 71.75C428.167 64.41 425.777 58.103 420.846 53.1716L415.189 58.8284C418.457 62.0969 420.167 66.29 420.167 71.75H428.167ZM420.846 53.1716C415.756 48.0824 408.584 45.85 400.017 45.85V53.85C407.251 53.85 412.078 55.7176 415.189 58.8284L420.846 53.1716ZM400.017 45.85H370.767V53.85H400.017V45.85ZM366.767 49.85V93.95H374.767V49.85H366.767ZM370.767 97.95H400.017V89.95H370.767V97.95ZM519.654 60.5V56.5H515.654V60.5H519.654ZM532.104 60.5H536.104V56.5H532.104V60.5ZM532.104 143V147H536.104V143H532.104ZM519.654 143H515.654V147H519.654V143ZM519.654 126.35H523.654V111.457L516.192 124.346L519.654 126.35ZM506.454 139.85L508.493 143.291L508.503 143.286L508.512 143.28L506.454 139.85ZM460.104 132.65L457.114 135.307L457.132 135.327L457.149 135.346L460.104 132.65ZM460.104 71L457.133 68.3221L457.131 68.3241L460.104 71ZM506.604 63.8L504.546 67.23L504.546 67.23L506.604 63.8ZM519.654 77.45L516.152 79.3823L523.654 77.45H519.654ZM511.404 124.1L514.282 126.878L514.293 126.866L514.305 126.854L511.404 124.1ZM511.404 79.55L508.503 82.3037L508.514 82.3161L508.526 82.3284L511.404 79.55ZM469.704 79.55L466.728 76.8769L466.726 76.8798L469.704 79.55ZM469.854 124.1L466.901 126.798L466.901 126.798L469.854 124.1ZM519.654 64.5H532.104V56.5H519.654V64.5ZM528.104 60.5V143H536.104V60.5H528.104ZM532.104 139H519.654V147H532.104V139ZM523.654 143V126.35H515.654V143H523.654ZM516.192 124.346C513.222 129.476 509.299 133.478 504.396 136.42L508.512 143.28C514.609 139.622 519.486 134.624 523.116 128.354L516.192 124.346ZM504.415 136.409C499.701 139.202 494.221 140.65 487.854 140.65V148.65C495.487 148.65 502.407 146.898 508.493 143.291L504.415 136.409ZM487.854 140.65C477.735 140.65 469.572 137.092 463.059 129.954L457.149 135.346C465.236 144.208 475.573 148.65 487.854 148.65V140.65ZM463.094 129.993C456.643 122.736 453.304 113.43 453.304 101.75H445.304C445.304 115.07 449.164 126.364 457.114 135.307L463.094 129.993ZM453.304 101.75C453.304 90.0684 456.644 80.8243 463.077 73.6759L457.131 68.3241C449.164 77.1757 445.304 88.4316 445.304 101.75H453.304ZM463.075 73.6779C469.594 66.4452 477.752 62.85 487.854 62.85V54.85C475.556 54.85 465.214 59.3548 457.133 68.3221L463.075 73.6779ZM487.854 62.85C494.197 62.85 499.724 64.3367 504.546 67.23L508.662 60.37C502.484 56.6633 495.51 54.85 487.854 54.85V62.85ZM504.546 67.23C509.42 70.1547 513.281 74.179 516.152 79.3823L523.156 75.5177C519.627 69.121 514.787 64.0453 508.662 60.37L504.546 67.23ZM523.654 77.45V60.5H515.654V77.45H523.654ZM490.254 136.8C499.773 136.8 507.883 133.505 514.282 126.878L508.526 121.322C503.725 126.295 497.735 128.8 490.254 128.8V136.8ZM514.305 126.854C520.688 120.129 523.804 111.656 523.804 101.75H515.804C515.804 109.844 513.32 116.271 508.503 121.346L514.305 126.854ZM523.804 101.75C523.804 91.8446 520.688 83.4067 514.282 76.7716L508.526 82.3284C513.32 87.2933 515.804 93.6554 515.804 101.75H523.804ZM514.305 76.7963C507.913 70.0613 499.796 66.7 490.254 66.7V74.7C497.712 74.7 503.695 77.2387 508.503 82.3037L514.305 76.7963ZM490.254 66.7C480.795 66.7 472.836 70.0776 466.728 76.8769L472.68 82.2231C477.172 77.2224 482.913 74.7 490.254 74.7V66.7ZM466.726 76.8798C460.766 83.5266 457.904 91.9276 457.904 101.75H465.904C465.904 93.5724 468.241 87.1734 472.682 82.2202L466.726 76.8798ZM457.904 101.75C457.904 111.68 460.822 120.145 466.901 126.798L472.807 121.402C468.286 116.455 465.904 110.02 465.904 101.75H457.904ZM466.901 126.798C473.006 133.479 480.902 136.8 490.254 136.8V128.8C483.006 128.8 477.302 126.321 472.807 121.402L466.901 126.798ZM614.264 60.5V56.5H611.7L610.629 58.8302L614.264 60.5ZM627.614 60.5L631.243 62.1828L633.878 56.5H627.614V60.5ZM571.964 180.5V184.5H574.518L575.593 182.183L571.964 180.5ZM558.614 180.5L554.981 178.827L552.368 184.5H558.614V180.5ZM580.514 132.95L584.147 134.623L584.919 132.948L584.146 131.273L580.514 132.95ZM547.064 60.5V56.5H540.812L543.432 62.1767L547.064 60.5ZM560.414 60.5L564.059 58.8532L562.996 56.5H560.414V60.5ZM587.114 119.6L583.469 121.247L587.084 129.248L590.749 121.27L587.114 119.6ZM614.264 64.5H627.614V56.5H614.264V64.5ZM623.985 58.8172L568.335 178.817L575.593 182.183L631.243 62.1828L623.985 58.8172ZM571.964 176.5H558.614V184.5H571.964V176.5ZM562.247 182.173L584.147 134.623L576.881 131.277L554.981 178.827L562.247 182.173ZM584.146 131.273L550.696 58.8233L543.432 62.1767L576.882 134.627L584.146 131.273ZM547.064 64.5H560.414V56.5H547.064V64.5ZM556.769 62.1468L583.469 121.247L590.759 117.953L564.059 58.8532L556.769 62.1468ZM590.749 121.27L617.899 62.1698L610.629 58.8302L583.479 117.93L590.749 121.27Z" fill="white" mask="url(#path-1-outside-1_21_2)"/>
</svg>
