<svg xmlns="http://www.w3.org/2000/svg" fill="none" viewBox="0 10.12 147.08 22.88">
<path fill-rule="evenodd" clip-rule="evenodd" d="M15.5398 28.0929C18.0877 26.3066 19.7534 23.3478 19.7534 20C19.7534 16.6521 18.0877 13.6933 15.5399 11.9071C17.1433 10.783 19.0961 10.1233 21.203 10.1233C26.6577 10.1233 31.0797 14.5453 31.0797 20C31.0797 25.4548 26.6577 29.8767 21.203 29.8767C19.0961 29.8767 17.1432 29.217 15.5398 28.0929ZM15.5398 28.0929C13.9364 29.217 11.9836 29.8767 9.87669 29.8767C4.42194 29.8767 0 25.4547 0 20C0 14.5452 4.42194 10.1233 9.87669 10.1233C11.9836 10.1233 13.9364 10.783 15.5399 11.9071C12.992 13.6933 11.3263 16.6522 11.3263 20C11.3263 23.3478 12.992 26.3066 15.5398 28.0929Z" fill="white"/>
<mask id="path-2-outside-1_1_413" maskUnits="userSpaceOnUse" x="36.0797" y="11" width="111" height="22" fill="black">
<rect fill="white" x="36.0797" y="11" width="111" height="22"/>
<path d="M45.9997 32.286C43.313 32.286 41.077 31.3933 39.2917 29.608C37.5237 27.8227 36.6397 25.5867 36.6397 22.9C36.6397 20.2133 37.5237 17.9773 39.2917 16.192C41.077 14.4067 43.313 13.514 45.9997 13.514C48.0277 13.514 49.813 14.0687 51.3557 15.178C52.9157 16.27 54.0077 17.7433 54.6317 19.598H52.3177C51.763 18.3673 50.9223 17.388 49.7957 16.66C48.6863 15.932 47.4123 15.568 45.9737 15.568C43.9283 15.568 42.221 16.27 40.8517 17.674C39.4997 19.0607 38.8237 20.8027 38.8237 22.9C38.8237 24.9973 39.4997 26.748 40.8517 28.152C42.221 29.5387 43.9283 30.232 45.9737 30.232C47.4123 30.232 48.6863 29.868 49.7957 29.14C50.9223 28.412 51.763 27.4327 52.3177 26.202H54.6317C54.0077 28.0567 52.9157 29.5387 51.3557 30.648C49.813 31.74 48.0277 32.286 45.9997 32.286ZM65.107 17.414C66.7363 17.414 68.0017 17.8993 68.903 18.87C69.8217 19.8407 70.281 21.1927 70.281 22.926V32H68.123V23.342C68.123 20.7593 66.9183 19.468 64.509 19.468C63.0703 19.468 61.9523 19.936 61.155 20.872C60.375 21.808 59.985 23.0733 59.985 24.668V32H57.827V11.98H59.985V20.482C61.0423 18.4367 62.7497 17.414 65.107 17.414ZM73.9978 11.824C74.2925 11.5467 74.6565 11.408 75.0898 11.408C75.5231 11.408 75.8785 11.5467 76.1558 11.824C76.4505 12.1013 76.5978 12.4393 76.5978 12.838C76.5978 13.254 76.4505 13.6007 76.1558 13.878C75.8785 14.1553 75.5231 14.294 75.0898 14.294C74.6565 14.294 74.2925 14.1553 73.9978 13.878C73.7205 13.6007 73.5818 13.254 73.5818 12.838C73.5818 12.4393 73.7205 12.1013 73.9978 11.824ZM73.9978 32V17.7H76.1558V32H73.9978ZM96.188 17.414C97.696 17.414 98.866 17.882 99.698 18.818C100.53 19.7367 100.946 21.0367 100.946 22.718V32H98.788V23.108C98.788 20.6813 97.7133 19.468 95.564 19.468C94.264 19.468 93.2673 19.9533 92.574 20.924C91.8806 21.8947 91.534 23.1427 91.534 24.668L91.56 32H89.376V23.108C89.376 20.6813 88.3013 19.468 86.152 19.468C84.8693 19.468 83.8813 19.9533 83.188 20.924C82.4946 21.8947 82.148 23.1427 82.148 24.668V32H79.99V17.7H82.148V20.404C83.1533 18.4107 84.7046 17.414 86.802 17.414C87.9633 17.414 88.9253 17.7 89.688 18.272C90.4506 18.8267 90.9793 19.6327 91.274 20.69C92.2793 18.506 93.9173 17.414 96.188 17.414ZM111.404 17.414C113.622 17.414 115.39 18.168 116.708 19.676C118.025 21.184 118.64 23.1253 118.554 25.5H106.308C106.412 26.9733 106.94 28.1347 107.894 28.984C108.847 29.8333 110.052 30.258 111.508 30.258C113.64 30.258 115.13 29.426 115.98 27.762H118.216C117.626 29.2353 116.734 30.362 115.538 31.142C114.342 31.9047 112.972 32.286 111.43 32.286C109.298 32.286 107.538 31.6013 106.152 30.232C104.782 28.8453 104.098 27.0687 104.098 24.902C104.098 22.7353 104.782 20.95 106.152 19.546C107.521 18.1247 109.272 17.414 111.404 17.414ZM111.404 19.442C110.121 19.442 109.029 19.8147 108.128 20.56C107.244 21.3053 106.672 22.276 106.412 23.472H116.214C115.971 22.2587 115.425 21.288 114.576 20.56C113.726 19.8147 112.669 19.442 111.404 19.442ZM128.961 17.414C129.273 17.414 129.567 17.4313 129.845 17.466V19.676C129.533 19.6413 129.229 19.624 128.935 19.624C127.392 19.624 126.161 20.118 125.243 21.106C124.324 22.0767 123.865 23.4547 123.865 25.24V32H121.707V17.7H123.865V20.898C124.801 18.5753 126.499 17.414 128.961 17.414ZM143.917 17.7H146.075V32H143.917V29.114C143.345 30.102 142.582 30.882 141.629 31.454C140.693 32.0087 139.618 32.286 138.405 32.286C136.463 32.286 134.86 31.5927 133.595 30.206C132.347 28.802 131.723 27.0167 131.723 24.85C131.723 22.6833 132.347 20.9067 133.595 19.52C134.86 18.116 136.463 17.414 138.405 17.414C139.618 17.414 140.701 17.7 141.655 18.272C142.608 18.844 143.362 19.6327 143.917 20.638V17.7ZM138.821 30.232C140.294 30.232 141.516 29.7293 142.487 28.724C143.457 27.7013 143.943 26.41 143.943 24.85C143.943 23.29 143.457 22.0073 142.487 21.002C141.516 19.9793 140.294 19.468 138.821 19.468C137.365 19.468 136.177 19.9793 135.259 21.002C134.357 22.0073 133.907 23.29 133.907 24.85C133.907 26.4273 134.366 27.7187 135.285 28.724C136.203 29.7293 137.382 30.232 138.821 30.232Z"/>
</mask>
<path d="M45.9997 32.286C43.313 32.286 41.077 31.3933 39.2917 29.608C37.5237 27.8227 36.6397 25.5867 36.6397 22.9C36.6397 20.2133 37.5237 17.9773 39.2917 16.192C41.077 14.4067 43.313 13.514 45.9997 13.514C48.0277 13.514 49.813 14.0687 51.3557 15.178C52.9157 16.27 54.0077 17.7433 54.6317 19.598H52.3177C51.763 18.3673 50.9223 17.388 49.7957 16.66C48.6863 15.932 47.4123 15.568 45.9737 15.568C43.9283 15.568 42.221 16.27 40.8517 17.674C39.4997 19.0607 38.8237 20.8027 38.8237 22.9C38.8237 24.9973 39.4997 26.748 40.8517 28.152C42.221 29.5387 43.9283 30.232 45.9737 30.232C47.4123 30.232 48.6863 29.868 49.7957 29.14C50.9223 28.412 51.763 27.4327 52.3177 26.202H54.6317C54.0077 28.0567 52.9157 29.5387 51.3557 30.648C49.813 31.74 48.0277 32.286 45.9997 32.286ZM65.107 17.414C66.7363 17.414 68.0017 17.8993 68.903 18.87C69.8217 19.8407 70.281 21.1927 70.281 22.926V32H68.123V23.342C68.123 20.7593 66.9183 19.468 64.509 19.468C63.0703 19.468 61.9523 19.936 61.155 20.872C60.375 21.808 59.985 23.0733 59.985 24.668V32H57.827V11.98H59.985V20.482C61.0423 18.4367 62.7497 17.414 65.107 17.414ZM73.9978 11.824C74.2925 11.5467 74.6565 11.408 75.0898 11.408C75.5231 11.408 75.8785 11.5467 76.1558 11.824C76.4505 12.1013 76.5978 12.4393 76.5978 12.838C76.5978 13.254 76.4505 13.6007 76.1558 13.878C75.8785 14.1553 75.5231 14.294 75.0898 14.294C74.6565 14.294 74.2925 14.1553 73.9978 13.878C73.7205 13.6007 73.5818 13.254 73.5818 12.838C73.5818 12.4393 73.7205 12.1013 73.9978 11.824ZM73.9978 32V17.7H76.1558V32H73.9978ZM96.188 17.414C97.696 17.414 98.866 17.882 99.698 18.818C100.53 19.7367 100.946 21.0367 100.946 22.718V32H98.788V23.108C98.788 20.6813 97.7133 19.468 95.564 19.468C94.264 19.468 93.2673 19.9533 92.574 20.924C91.8806 21.8947 91.534 23.1427 91.534 24.668L91.56 32H89.376V23.108C89.376 20.6813 88.3013 19.468 86.152 19.468C84.8693 19.468 83.8813 19.9533 83.188 20.924C82.4946 21.8947 82.148 23.1427 82.148 24.668V32H79.99V17.7H82.148V20.404C83.1533 18.4107 84.7046 17.414 86.802 17.414C87.9633 17.414 88.9253 17.7 89.688 18.272C90.4506 18.8267 90.9793 19.6327 91.274 20.69C92.2793 18.506 93.9173 17.414 96.188 17.414ZM111.404 17.414C113.622 17.414 115.39 18.168 116.708 19.676C118.025 21.184 118.64 23.1253 118.554 25.5H106.308C106.412 26.9733 106.94 28.1347 107.894 28.984C108.847 29.8333 110.052 30.258 111.508 30.258C113.64 30.258 115.13 29.426 115.98 27.762H118.216C117.626 29.2353 116.734 30.362 115.538 31.142C114.342 31.9047 112.972 32.286 111.43 32.286C109.298 32.286 107.538 31.6013 106.152 30.232C104.782 28.8453 104.098 27.0687 104.098 24.902C104.098 22.7353 104.782 20.95 106.152 19.546C107.521 18.1247 109.272 17.414 111.404 17.414ZM111.404 19.442C110.121 19.442 109.029 19.8147 108.128 20.56C107.244 21.3053 106.672 22.276 106.412 23.472H116.214C115.971 22.2587 115.425 21.288 114.576 20.56C113.726 19.8147 112.669 19.442 111.404 19.442ZM128.961 17.414C129.273 17.414 129.567 17.4313 129.845 17.466V19.676C129.533 19.6413 129.229 19.624 128.935 19.624C127.392 19.624 126.161 20.118 125.243 21.106C124.324 22.0767 123.865 23.4547 123.865 25.24V32H121.707V17.7H123.865V20.898C124.801 18.5753 126.499 17.414 128.961 17.414ZM143.917 17.7H146.075V32H143.917V29.114C143.345 30.102 142.582 30.882 141.629 31.454C140.693 32.0087 139.618 32.286 138.405 32.286C136.463 32.286 134.86 31.5927 133.595 30.206C132.347 28.802 131.723 27.0167 131.723 24.85C131.723 22.6833 132.347 20.9067 133.595 19.52C134.86 18.116 136.463 17.414 138.405 17.414C139.618 17.414 140.701 17.7 141.655 18.272C142.608 18.844 143.362 19.6327 143.917 20.638V17.7ZM138.821 30.232C140.294 30.232 141.516 29.7293 142.487 28.724C143.457 27.7013 143.943 26.41 143.943 24.85C143.943 23.29 143.457 22.0073 142.487 21.002C141.516 19.9793 140.294 19.468 138.821 19.468C137.365 19.468 136.177 19.9793 135.259 21.002C134.357 22.0073 133.907 23.29 133.907 24.85C133.907 26.4273 134.366 27.7187 135.285 28.724C136.203 29.7293 137.382 30.232 138.821 30.232Z" fill="white"/>
<path d="M39.2917 29.608L39.0785 29.8191L39.0795 29.8201L39.2917 29.608ZM39.2917 16.192L39.0795 15.9799L39.0785 15.9809L39.2917 16.192ZM51.3557 15.178L51.1805 15.4216L51.1836 15.4238L51.3557 15.178ZM54.6317 19.598V19.898H55.0491L54.916 19.5023L54.6317 19.598ZM52.3177 19.598L52.0441 19.7213L52.1238 19.898H52.3177V19.598ZM49.7957 16.66L49.6311 16.9108L49.6328 16.912L49.7957 16.66ZM40.8517 17.674L40.6369 17.4645L40.6369 17.4646L40.8517 17.674ZM40.8517 28.152L40.6355 28.3601L40.6382 28.3628L40.8517 28.152ZM49.7957 29.14L49.6328 28.888L49.6311 28.8892L49.7957 29.14ZM52.3177 26.202V25.902H52.1238L52.0441 26.0787L52.3177 26.202ZM54.6317 26.202L54.916 26.2977L55.0491 25.902H54.6317V26.202ZM51.3557 30.648L51.529 30.8929L51.5295 30.8925L51.3557 30.648ZM45.9997 31.986C43.3869 31.986 41.229 31.1211 39.5038 29.3959L39.0795 29.8201C40.925 31.6656 43.2391 32.586 45.9997 32.586V31.986ZM39.5048 29.3969C37.7966 27.6719 36.9397 25.5137 36.9397 22.9H36.3397C36.3397 25.6597 37.2507 27.9734 39.0785 29.8191L39.5048 29.3969ZM36.9397 22.9C36.9397 20.2863 37.7966 18.1281 39.5048 16.4031L39.0785 15.9809C37.2507 17.8266 36.3397 20.1403 36.3397 22.9H36.9397ZM39.5038 16.4041C41.229 14.6789 43.3869 13.814 45.9997 13.814V13.214C43.2391 13.214 40.925 14.1344 39.0795 15.9799L39.5038 16.4041ZM45.9997 13.814C47.9693 13.814 49.6924 14.3515 51.1805 15.4216L51.5308 14.9344C49.9336 13.7859 48.086 13.214 45.9997 13.214V13.814ZM51.1836 15.4238C52.6896 16.4779 53.7431 17.8979 54.3473 19.6937L54.916 19.5023C54.2722 17.5887 53.1417 16.0621 51.5277 14.9322L51.1836 15.4238ZM54.6317 19.298H52.3177V19.898H54.6317V19.298ZM52.5912 19.4747C52.0129 18.1918 51.134 17.1676 49.9585 16.408L49.6328 16.912C50.7107 17.6084 51.5131 18.5429 52.0441 19.7213L52.5912 19.4747ZM49.9602 16.4092C48.7979 15.6464 47.4657 15.268 45.9737 15.268V15.868C47.359 15.868 48.5747 16.2176 49.6311 16.9108L49.9602 16.4092ZM45.9737 15.268C43.8513 15.268 42.0653 15.9999 40.6369 17.4645L41.0664 17.8835C42.3766 16.5401 44.0053 15.868 45.9737 15.868V15.268ZM40.6369 17.4646C39.2254 18.9122 38.5237 20.7316 38.5237 22.9H39.1237C39.1237 20.8738 39.7739 19.2092 41.0665 17.8834L40.6369 17.4646ZM38.5237 22.9C38.5237 25.0685 39.2254 26.8957 40.6356 28.3601L41.0677 27.9439C39.7739 26.6003 39.1237 24.9262 39.1237 22.9H38.5237ZM40.6382 28.3628C42.0669 29.8096 43.8525 30.532 45.9737 30.532V29.932C44.0041 29.932 42.375 29.2677 41.0651 27.9412L40.6382 28.3628ZM45.9737 30.532C47.4657 30.532 48.7979 30.1536 49.9602 29.3908L49.6311 28.8892C48.5747 29.5824 47.359 29.932 45.9737 29.932V30.532ZM49.9585 29.392C51.134 28.6324 52.0129 27.6082 52.5912 26.3253L52.0441 26.0787C51.5131 27.2571 50.7107 28.1916 49.6328 28.888L49.9585 29.392ZM52.3177 26.502H54.6317V25.902H52.3177V26.502ZM54.3473 26.1063C53.743 27.9024 52.689 29.3317 51.1818 30.4035L51.5295 30.8925C53.1423 29.7456 54.2723 28.2109 54.916 26.2977L54.3473 26.1063ZM51.1823 30.4031C49.6941 31.4566 47.9703 31.986 45.9997 31.986V32.586C48.085 32.586 49.9319 32.0234 51.529 30.8929L51.1823 30.4031ZM68.903 18.87L68.6832 19.0741L68.6851 19.0762L68.903 18.87ZM70.281 32V32.3H70.581V32H70.281ZM68.123 32H67.823V32.3H68.123V32ZM61.155 20.872L60.9266 20.6774L60.9245 20.6799L61.155 20.872ZM59.985 32V32.3H60.285V32H59.985ZM57.827 32H57.527V32.3H57.827V32ZM57.827 11.98V11.68H57.527V11.98H57.827ZM59.985 11.98H60.285V11.68H59.985V11.98ZM59.985 20.482H59.685L60.2515 20.6198L59.985 20.482ZM65.107 17.714C66.6735 17.714 67.8513 18.1782 68.6832 19.0741L69.1228 18.6659C68.1521 17.6204 66.7991 17.114 65.107 17.114V17.714ZM68.6851 19.0762C69.5368 19.9761 69.981 21.2458 69.981 22.926H70.581C70.581 21.1395 70.1065 19.7052 69.1209 18.6638L68.6851 19.0762ZM69.981 22.926V32H70.581V22.926H69.981ZM70.281 31.7H68.123V32.3H70.281V31.7ZM68.423 32V23.342H67.823V32H68.423ZM68.423 23.342C68.423 22.0094 68.1126 20.9541 67.4389 20.2319C66.7614 19.5057 65.7655 19.168 64.509 19.168V19.768C65.6619 19.768 66.4729 20.076 67.0001 20.6411C67.531 21.2102 67.823 22.0919 67.823 23.342H68.423ZM64.509 19.168C62.999 19.168 61.7909 19.6629 60.9266 20.6775L61.3834 21.0665C62.1138 20.2091 63.1417 19.768 64.509 19.768V19.168ZM60.9245 20.6799C60.0873 21.6846 59.685 23.0251 59.685 24.668H60.285C60.285 23.1216 60.6627 21.9314 61.3855 21.0641L60.9245 20.6799ZM59.685 24.668V32H60.285V24.668H59.685ZM59.985 31.7H57.827V32.3H59.985V31.7ZM58.127 32V11.98H57.527V32H58.127ZM57.827 12.28H59.985V11.68H57.827V12.28ZM59.685 11.98V20.482H60.285V11.98H59.685ZM60.2515 20.6198C60.7587 19.6387 61.4139 18.9168 62.2127 18.4384C63.0118 17.9597 63.9725 17.714 65.107 17.714V17.114C63.8841 17.114 62.8126 17.3796 61.9044 17.9236C60.9957 18.4679 60.2687 19.28 59.7185 20.3442L60.2515 20.6198ZM73.9978 11.824L73.7921 11.6054L73.7857 11.6119L73.9978 11.824ZM76.1558 11.824L75.9436 12.0362L75.9502 12.0425L76.1558 11.824ZM76.1558 13.878L75.9501 13.6594L75.9437 13.6659L76.1558 13.878ZM73.9978 13.878L73.7856 14.0902L73.7922 14.0965L73.9978 13.878ZM73.9978 32H73.6978V32.3H73.9978V32ZM73.9978 17.7V17.4H73.6978V17.7H73.9978ZM76.1558 17.7H76.4558V17.4H76.1558V17.7ZM76.1558 32V32.3H76.4558V32H76.1558ZM74.2034 12.0425C74.4382 11.8214 74.7269 11.708 75.0898 11.708V11.108C74.586 11.108 74.1467 11.2719 73.7922 11.6055L74.2034 12.0425ZM75.0898 11.708C75.4527 11.708 75.7287 11.8212 75.9437 12.0361L76.3679 11.6119C76.0282 11.2721 75.5935 11.108 75.0898 11.108V11.708ZM75.9502 12.0425C76.1856 12.2641 76.2978 12.5234 76.2978 12.838H76.8978C76.8978 12.3552 76.7153 11.9386 76.3614 11.6055L75.9502 12.0425ZM76.2978 12.838C76.2978 13.1739 76.1827 13.4407 75.9502 13.6595L76.3614 14.0965C76.7182 13.7607 76.8978 13.3341 76.8978 12.838H76.2978ZM75.9437 13.6659C75.7287 13.8808 75.4527 13.994 75.0898 13.994V14.594C75.5935 14.594 76.0282 14.4299 76.3679 14.0901L75.9437 13.6659ZM75.0898 13.994C74.7269 13.994 74.4382 13.8806 74.2034 13.6595L73.7922 14.0965C74.1467 14.4301 74.586 14.594 75.0898 14.594V13.994ZM74.2099 13.6659C73.9925 13.4485 73.8818 13.1798 73.8818 12.838H73.2818C73.2818 13.3282 73.4484 13.7529 73.7857 14.0901L74.2099 13.6659ZM73.8818 12.838C73.8818 12.5174 73.9899 12.2562 74.2099 12.0361L73.7857 11.6119C73.451 11.9465 73.2818 12.3612 73.2818 12.838H73.8818ZM74.2978 32V17.7H73.6978V32H74.2978ZM73.9978 18H76.1558V17.4H73.9978V18ZM75.8558 17.7V32H76.4558V17.7H75.8558ZM76.1558 31.7H73.9978V32.3H76.1558V31.7ZM99.698 18.818L99.4737 19.0173L99.4756 19.0194L99.698 18.818ZM100.946 32V32.3H101.246V32H100.946ZM98.788 32H98.488V32.3H98.788V32ZM92.574 20.924L92.3299 20.7496L92.574 20.924ZM91.534 24.668H91.234L91.234 24.6691L91.534 24.668ZM91.56 32V32.3H91.861L91.86 31.9989L91.56 32ZM89.376 32H89.076V32.3H89.376V32ZM83.188 20.924L82.9439 20.7496L83.188 20.924ZM82.148 32V32.3H82.448V32H82.148ZM79.99 32H79.69V32.3H79.99V32ZM79.99 17.7V17.4H79.69V17.7H79.99ZM82.148 17.7H82.448V17.4H82.148V17.7ZM82.148 20.404H81.848L82.4158 20.5391L82.148 20.404ZM89.688 18.272L89.508 18.512L89.5115 18.5146L89.688 18.272ZM91.274 20.69L90.985 20.7705L91.2045 21.5583L91.5465 20.8154L91.274 20.69ZM96.188 17.714C97.6294 17.714 98.7102 18.1583 99.4738 19.0173L99.9222 18.6187C99.0217 17.6057 97.7626 17.114 96.188 17.114V17.714ZM99.4756 19.0194C100.242 19.8658 100.646 21.0843 100.646 22.718H101.246C101.246 20.9891 100.818 19.6076 99.9203 18.6166L99.4756 19.0194ZM100.646 22.718V32H101.246V22.718H100.646ZM100.946 31.7H98.788V32.3H100.946V31.7ZM99.088 32V23.108H98.488V32H99.088ZM99.088 23.108C99.088 21.8568 98.8117 20.8623 98.2066 20.1791C97.5952 19.4889 96.695 19.168 95.564 19.168V19.768C96.5823 19.768 97.294 20.0538 97.7574 20.5769C98.2269 21.107 98.488 21.9326 98.488 23.108H99.088ZM95.564 19.168C94.1773 19.168 93.0852 19.6922 92.3299 20.7496L92.8181 21.0984C93.4495 20.2145 94.3507 19.768 95.564 19.768V19.168ZM92.3299 20.7496C91.5912 21.7837 91.234 23.0976 91.234 24.668H91.834C91.834 23.1877 92.1701 22.0056 92.8181 21.0984L92.3299 20.7496ZM91.234 24.6691L91.26 32.0011L91.86 31.9989L91.834 24.6669L91.234 24.6691ZM91.56 31.7H89.376V32.3H91.56V31.7ZM89.676 32V23.108H89.076V32H89.676ZM89.676 23.108C89.676 21.8568 89.3997 20.8623 88.7946 20.1791C88.1833 19.4889 87.283 19.168 86.152 19.168V19.768C87.1703 19.768 87.882 20.0538 88.3454 20.5769C88.8149 21.107 89.076 21.9326 89.076 23.108H89.676ZM86.152 19.168C84.781 19.168 83.6983 19.6934 82.9439 20.7496L83.4321 21.0984C84.0643 20.2133 84.9576 19.768 86.152 19.768V19.168ZM82.9439 20.7496C82.2052 21.7837 81.848 23.0976 81.848 24.668H82.448C82.448 23.1877 82.7841 22.0056 83.4321 21.0984L82.9439 20.7496ZM81.848 24.668V32H82.448V24.668H81.848ZM82.148 31.7H79.99V32.3H82.148V31.7ZM80.29 32V17.7H79.69V32H80.29ZM79.99 18H82.148V17.4H79.99V18ZM81.848 17.7V20.404H82.448V17.7H81.848ZM82.4158 20.5391C82.8995 19.5802 83.5057 18.8777 84.2276 18.4139C84.9485 17.9508 85.8027 17.714 86.802 17.714V17.114C85.7039 17.114 84.7338 17.3756 83.9033 17.9091C83.0739 18.4419 82.4018 19.2345 81.8801 20.2689L82.4158 20.5391ZM86.802 17.714C87.9129 17.714 88.8078 17.9868 89.508 18.512L89.868 18.032C89.0429 17.4132 88.0137 17.114 86.802 17.114V17.714ZM89.5115 18.5146C90.2108 19.0232 90.7054 19.7672 90.985 20.7705L91.563 20.6095C91.2533 19.4981 90.6905 18.6302 89.8644 18.0294L89.5115 18.5146ZM91.5465 20.8154C92.0311 19.7627 92.6593 18.9917 93.4229 18.4826C94.1854 17.9743 95.1025 17.714 96.188 17.714V17.114C95.0028 17.114 93.9656 17.3997 93.0901 17.9834C92.2156 18.5663 91.5222 19.4333 91.0015 20.5646L91.5465 20.8154ZM116.708 19.676L116.482 19.8734L116.708 19.676ZM118.554 25.5V25.8H118.843L118.853 25.5109L118.554 25.5ZM106.308 25.5V25.2H105.986L106.008 25.5211L106.308 25.5ZM115.98 27.762V27.462H115.796L115.712 27.6256L115.98 27.762ZM118.216 27.762L118.494 27.8734L118.659 27.462H118.216V27.762ZM115.538 31.142L115.699 31.395L115.702 31.3933L115.538 31.142ZM106.152 30.232L105.938 30.4428L105.941 30.4455L106.152 30.232ZM106.152 19.546L106.366 19.7555L106.368 19.7541L106.152 19.546ZM108.128 20.56L107.936 20.3288L107.934 20.3306L108.128 20.56ZM106.412 23.472L106.119 23.4083L106.039 23.772H106.412V23.472ZM116.214 23.472V23.772H116.58L116.508 23.4132L116.214 23.472ZM114.576 20.56L114.378 20.7855L114.38 20.7878L114.576 20.56ZM111.404 17.714C113.546 17.714 115.228 18.4381 116.482 19.8734L116.934 19.4786C115.553 17.8979 113.698 17.114 111.404 17.114V17.714ZM116.482 19.8734C117.74 21.3134 118.338 23.1755 118.254 25.4891L118.853 25.5109C118.942 23.0751 118.31 21.0546 116.934 19.4786L116.482 19.8734ZM118.554 25.2H106.308V25.8H118.554V25.2ZM106.008 25.5211C106.117 27.0593 106.673 28.2984 107.694 29.208L108.093 28.76C107.207 27.9709 106.706 26.8874 106.607 25.4789L106.008 25.5211ZM107.694 29.208C108.71 30.1132 109.989 30.558 111.508 30.558V29.958C110.114 29.958 108.984 29.5535 108.093 28.76L107.694 29.208ZM111.508 30.558C112.612 30.558 113.571 30.3424 114.371 29.896C115.173 29.4483 115.798 28.7781 116.247 27.8984L115.712 27.6256C115.312 28.4099 114.767 28.9877 114.078 29.372C113.388 29.7576 112.535 29.958 111.508 29.958V30.558ZM115.98 28.062H118.216V27.462H115.98V28.062ZM117.937 27.6506C117.368 29.0733 116.512 30.1482 115.374 30.8907L115.702 31.3933C116.955 30.5758 117.885 29.3974 118.494 27.8734L117.937 27.6506ZM115.376 30.8891C114.233 31.6183 112.92 31.986 111.43 31.986V32.586C113.024 32.586 114.451 32.191 115.699 31.3949L115.376 30.8891ZM111.43 31.986C109.368 31.986 107.687 31.327 106.362 30.0185L105.941 30.4455C107.389 31.8757 109.227 32.586 111.43 32.586V31.986ZM106.365 30.0212C105.058 28.6972 104.398 26.9994 104.398 24.902H103.798C103.798 27.1379 104.507 28.9935 105.938 30.4428L106.365 30.0212ZM104.398 24.902C104.398 22.8046 105.058 21.0973 106.366 19.7555L105.937 19.3365C104.507 20.8027 103.798 22.666 103.798 24.902H104.398ZM106.368 19.7541C107.676 18.3965 109.346 17.714 111.404 17.714V17.114C109.197 17.114 107.366 17.8528 105.936 19.3379L106.368 19.7541ZM111.404 19.142C110.058 19.142 108.897 19.5346 107.936 20.3288L108.319 20.7912C109.161 20.0947 110.184 19.742 111.404 19.742V19.142ZM107.934 20.3306C106.997 21.1213 106.392 22.1516 106.119 23.4083L106.705 23.5357C106.952 22.4004 107.491 21.4894 108.321 20.7894L107.934 20.3306ZM106.412 23.772H116.214V23.172H106.412V23.772ZM116.508 23.4132C116.253 22.1414 115.677 21.1086 114.771 20.3322L114.38 20.7878C115.173 21.4674 115.689 22.3759 115.919 23.5308L116.508 23.4132ZM114.774 20.3345C113.863 19.5353 112.732 19.142 111.404 19.142V19.742C112.606 19.742 113.59 20.094 114.378 20.7855L114.774 20.3345ZM129.845 17.466H130.145V17.2012L129.882 17.1683L129.845 17.466ZM129.845 19.676L129.812 19.9742L130.145 20.0112V19.676H129.845ZM125.243 21.106L125.461 21.3122L125.462 21.3103L125.243 21.106ZM123.865 32V32.3H124.165V32H123.865ZM121.707 32H121.407V32.3H121.707V32ZM121.707 17.7V17.4H121.407V17.7H121.707ZM123.865 17.7H124.165V17.4H123.865V17.7ZM123.865 20.898H123.565L124.143 21.0101L123.865 20.898ZM128.961 17.714C129.262 17.714 129.544 17.7307 129.808 17.7637L129.882 17.1683C129.591 17.1319 129.284 17.114 128.961 17.114V17.714ZM129.545 17.466V19.676H130.145V17.466H129.545ZM129.878 19.3778C129.556 19.342 129.241 19.324 128.935 19.324V19.924C129.218 19.924 129.51 19.9406 129.812 19.9742L129.878 19.3778ZM128.935 19.324C127.322 19.324 126.007 19.8437 125.023 20.9017L125.462 21.3103C126.316 20.3923 127.462 19.924 128.935 19.924V19.324ZM125.025 20.8998C124.038 21.9428 123.565 23.4043 123.565 25.24H124.165C124.165 23.505 124.61 22.2106 125.461 21.3122L125.025 20.8998ZM123.565 25.24V32H124.165V25.24H123.565ZM123.865 31.7H121.707V32.3H123.865V31.7ZM122.007 32V17.7H121.407V32H122.007ZM121.707 18H123.865V17.4H121.707V18ZM123.565 17.7V20.898H124.165V17.7H123.565ZM124.143 21.0101C124.594 19.8917 125.219 19.0732 126.01 18.5327C126.8 17.9923 127.778 17.714 128.961 17.714V17.114C127.682 17.114 126.58 17.4163 125.671 18.0373C124.764 18.6581 124.072 19.5816 123.587 20.7859L124.143 21.0101ZM143.917 17.7V17.4H143.617V17.7H143.917ZM146.075 17.7H146.375V17.4H146.075V17.7ZM146.075 32V32.3H146.375V32H146.075ZM143.917 32H143.617V32.3H143.917V32ZM143.917 29.114H144.217V27.9971L143.657 28.9637L143.917 29.114ZM141.629 31.454L141.782 31.7121L141.783 31.7112L141.629 31.454ZM133.595 30.206L133.37 30.4053L133.373 30.4082L133.595 30.206ZM133.595 19.52L133.372 19.3192L133.372 19.3193L133.595 19.52ZM141.655 18.272L141.5 18.5292L141.655 18.272ZM143.917 20.638L143.654 20.7829L144.217 20.638H143.917ZM142.487 28.724L142.702 28.9324L142.704 28.9305L142.487 28.724ZM142.487 21.002L142.269 21.2085L142.271 21.2104L142.487 21.002ZM135.259 21.002L135.035 20.8015L135.035 20.8017L135.259 21.002ZM135.285 28.724L135.063 28.9264L135.285 28.724ZM143.917 18H146.075V17.4H143.917V18ZM145.775 17.7V32H146.375V17.7H145.775ZM146.075 31.7H143.917V32.3H146.075V31.7ZM144.217 32V29.114H143.617V32H144.217ZM143.657 28.9637C143.11 29.9089 142.383 30.6516 141.474 31.1968L141.783 31.7112C142.781 31.1124 143.58 30.2951 144.176 29.2643L143.657 28.9637ZM141.476 31.1959C140.591 31.7201 139.571 31.986 138.405 31.986V32.586C139.665 32.586 140.794 32.2973 141.782 31.7121L141.476 31.1959ZM138.405 31.986C136.544 31.986 135.023 31.3258 133.816 30.0038L133.373 30.4082C134.697 31.8595 136.382 32.586 138.405 32.586V31.986ZM133.819 30.0067C132.627 28.666 132.023 26.9552 132.023 24.85H131.423C131.423 27.0781 132.066 28.938 133.37 30.4053L133.819 30.0067ZM132.023 24.85C132.023 22.7447 132.627 21.0435 133.818 19.7207L133.372 19.3193C132.066 20.7698 131.423 22.622 131.423 24.85H132.023ZM133.818 19.7208C135.024 18.3819 136.546 17.714 138.405 17.714V17.114C136.381 17.114 134.696 17.8501 133.372 19.3192L133.818 19.7208ZM138.405 17.714C139.569 17.714 140.598 17.9877 141.5 18.5292L141.809 18.0148C140.805 17.4122 139.667 17.114 138.405 17.114V17.714ZM141.5 18.5292C142.407 19.0731 143.124 19.8223 143.654 20.7829L144.179 20.4931C143.6 19.443 142.809 18.6149 141.809 18.0148L141.5 18.5292ZM144.217 20.638V17.7H143.617V20.638H144.217ZM138.821 30.532C140.37 30.532 141.672 29.9997 142.702 28.9324L142.271 28.5156C141.36 29.4589 140.218 29.932 138.821 29.932V30.532ZM142.704 28.9305C143.734 27.846 144.243 26.478 144.243 24.85H143.643C143.643 26.342 143.181 27.5567 142.269 28.5175L142.704 28.9305ZM144.243 24.85C144.243 23.2221 143.734 21.8616 142.702 20.7936L142.271 21.2104C143.181 22.1531 143.643 23.3579 143.643 24.85H144.243ZM142.704 20.7955C141.674 19.7102 140.372 19.168 138.821 19.168V19.768C140.216 19.768 141.358 20.2485 142.269 21.2085L142.704 20.7955ZM138.821 19.168C137.285 19.168 136.015 19.7114 135.035 20.8015L135.482 21.2025C136.34 20.2473 137.444 19.768 138.821 19.768V19.168ZM135.035 20.8017C134.077 21.8706 133.607 23.2283 133.607 24.85H134.207C134.207 23.3517 134.638 22.1441 135.482 21.2023L135.035 20.8017ZM133.607 24.85C133.607 26.4896 134.086 27.8571 135.063 28.9264L135.506 28.5216C134.646 27.5803 134.207 26.3651 134.207 24.85H133.607ZM135.063 28.9264C136.042 29.9978 137.303 30.532 138.821 30.532V29.932C137.461 29.932 136.364 29.4609 135.506 28.5216L135.063 28.9264Z" fill="white" mask="url(#path-2-outside-1_1_413)"/>
</svg>